<svg xmlns="http://www.w3.org/2000/svg" xmlns:xlink="http://www.w3.org/1999/xlink" width="500" zoomAndPan="magnify" viewBox="0 0 375 374.999991" height="500" preserveAspectRatio="xMidYMid meet" version="1.0"><defs><g/><clipPath id="5dec57a0bb"><path d="M 104 80.757812 L 278 80.757812 L 278 175 L 104 175 Z M 104 80.757812 " clip-rule="nonzero"/></clipPath><clipPath id="5ed42de178"><path d="M 73.792969 134.527344 L 304.035156 134.527344 L 304.035156 251.757812 L 73.792969 251.757812 Z M 73.792969 134.527344 " clip-rule="nonzero"/></clipPath><clipPath id="3e44653be0"><path d="M 141.234375 198.359375 L 236.484375 198.359375 L 236.484375 225.359375 L 141.234375 225.359375 Z M 141.234375 198.359375 " clip-rule="nonzero"/></clipPath></defs><rect x="-37.5" width="450" fill="#ffffff" y="-37.499999" height="449.999989" fill-opacity="1"/><rect x="-37.5" width="450" fill="#ffffff" y="-37.499999" height="449.999989" fill-opacity="1"/><g clip-path="url(#5dec57a0bb)"><path fill="#285430" d="M 275.652344 106.542969 C 276.382812 106.769531 277.433594 107.046875 277.433594 107.875 L 277.433594 110.179688 C 277.433594 110.335938 277.378906 110.472656 277.058594 110.578125 C 210.027344 131.265625 289.960938 106.546875 193.214844 136.496094 C 192.496094 136.71875 190.324219 136.71875 189.605469 136.496094 C 169.742188 130.34375 149.917969 124.164062 130.082031 118.027344 C 129.714844 117.914062 129.714844 117.394531 130.082031 117.28125 L 187.15625 99.664062 C 187.269531 99.628906 187.386719 99.648438 187.484375 99.710938 C 188.453125 100.324219 189.851562 100.707031 191.40625 100.707031 C 194.324219 100.707031 196.683594 99.359375 196.683594 97.691406 C 196.683594 96.023438 194.3125 94.675781 191.398438 94.675781 C 188.820312 94.675781 186.664062 95.730469 186.203125 97.128906 C 186.164062 97.246094 186.046875 97.339844 185.925781 97.375 L 124.753906 116.246094 C 124.589844 116.296875 124.382812 116.445312 124.382812 116.617188 L 124.382812 132.078125 C 124.382812 132.253906 124.597656 132.414062 124.769531 132.453125 C 127.996094 133.242188 130.5 136.160156 130.5 139.625 C 130.5 142.570312 128.757812 145.121094 126.25 146.304688 C 126.070312 146.390625 125.972656 146.609375 126.046875 146.792969 C 126.117188 146.972656 126.097656 147.175781 125.996094 147.335938 C 125.875 147.53125 125.929688 147.773438 126.128906 147.890625 C 132.628906 151.726562 133.9375 164.78125 133.226562 171.820312 C 133.210938 171.964844 133.121094 172.085938 132.988281 172.140625 C 126.726562 174.734375 119.519531 174.734375 113.257812 172.140625 C 113.125 172.085938 113.035156 171.964844 113.019531 171.820312 C 112.3125 164.777344 113.613281 151.722656 120.121094 147.890625 C 120.320312 147.773438 120.375 147.53125 120.253906 147.335938 C 120.152344 147.175781 120.132812 146.96875 120.207031 146.792969 C 120.277344 146.609375 120.183594 146.390625 120.003906 146.304688 C 117.5 145.121094 115.769531 142.570312 115.769531 139.625 C 115.769531 136.140625 118.226562 133.207031 121.480469 132.441406 C 121.652344 132.402344 121.816406 132.242188 121.816406 132.0625 L 121.816406 115.828125 C 121.816406 115.65625 121.554688 115.507812 121.390625 115.457031 L 105.429688 110.578125 C 105.105469 110.472656 104.71875 110.335938 104.71875 110.179688 L 104.71875 107.875 C 104.71875 107.46875 106.695312 106.671875 107.101562 106.542969 L 188.128906 81.53125 C 190.488281 80.800781 192.289062 80.800781 194.652344 81.53125 Z M 238.605469 125.53125 L 192.914062 139.640625 C 192.207031 139.859375 190.316406 139.859375 189.605469 139.640625 L 143.914062 125.53125 C 143.539062 125.417969 143.128906 125.578125 142.941406 125.925781 C 139.253906 132.738281 136.949219 140.398438 136.390625 148.542969 C 136.359375 149.007812 136.710938 149.40625 137.175781 149.433594 C 157.570312 150.664062 175.25 158.214844 190.746094 170.488281 C 191.046875 170.730469 191.476562 170.730469 191.777344 170.488281 C 207.265625 158.214844 224.953125 150.664062 245.34375 149.433594 C 245.808594 149.40625 246.15625 149.007812 246.125 148.542969 C 245.570312 140.398438 243.261719 132.738281 239.582031 125.925781 C 239.394531 125.578125 238.984375 125.417969 238.605469 125.53125 " fill-opacity="1" fill-rule="evenodd"/></g><g clip-path="url(#5ed42de178)"><path fill="#285430" d="M 86.835938 157.324219 C 87.003906 157.160156 87.195312 156.976562 87.398438 156.777344 C 87.609375 156.578125 87.832031 156.367188 88.070312 156.144531 C 88.53125 155.699219 89.039062 155.207031 89.570312 154.695312 C 90.078125 154.1875 90.609375 153.65625 91.132812 153.136719 C 91.671875 152.621094 92.210938 152.121094 92.699219 151.640625 C 92.148438 152.042969 91.5625 152.484375 90.976562 152.949219 C 90.414062 153.421875 89.859375 153.917969 89.320312 154.410156 C 88.257812 155.398438 87.246094 156.363281 86.617188 157.097656 C 85.824219 155.75 86.398438 154.089844 87.707031 152.808594 C 88.351562 152.164062 89.269531 151.644531 90.289062 151.289062 C 91.308594 150.9375 92.460938 150.761719 93.675781 150.824219 C 93.589844 151.433594 93.453125 152.011719 93.273438 152.554688 C 93.097656 153.097656 92.859375 153.601562 92.648438 154.089844 C 92.199219 155.046875 91.609375 155.859375 90.949219 156.472656 C 89.613281 157.691406 88.117188 158.179688 86.835938 157.324219 Z M 84.523438 170.234375 C 86.027344 170.960938 87.679688 170.195312 88.898438 168.652344 C 90.070312 167.09375 91.019531 164.789062 91.003906 162.082031 C 89.632812 162.1875 88.433594 162.554688 87.378906 163.09375 C 86.328125 163.628906 85.445312 164.347656 84.789062 165.140625 C 84.109375 165.933594 83.746094 166.820312 83.648438 167.671875 C 83.554688 168.519531 83.738281 169.339844 84.261719 170.015625 C 84.863281 169.117188 85.765625 167.894531 86.761719 166.648438 C 87.8125 165.410156 89 164.15625 90.054688 163.121094 C 89.609375 163.714844 89.117188 164.347656 88.609375 164.988281 C 88.355469 165.3125 88.09375 165.636719 87.839844 165.957031 C 87.578125 166.28125 87.316406 166.601562 87.085938 166.921875 C 86.132812 168.199219 85.210938 169.402344 84.523438 170.234375 Z M 84.117188 183.929688 C 84.414062 183.421875 84.761719 182.804688 85.132812 182.121094 C 85.515625 181.441406 85.882812 180.695312 86.351562 179.929688 C 86.789062 179.167969 87.242188 178.378906 87.695312 177.597656 C 88.144531 176.824219 88.527344 176.066406 88.972656 175.363281 C 88.429688 176 87.957031 176.703125 87.445312 177.4375 C 86.945312 178.171875 86.445312 178.933594 85.972656 179.6875 C 85.738281 180.0625 85.496094 180.4375 85.292969 180.804688 C 85.097656 181.171875 84.902344 181.53125 84.722656 181.871094 C 84.359375 182.5625 84.042969 183.199219 83.792969 183.734375 C 83.109375 183.089844 82.769531 182.230469 82.726562 181.292969 C 82.71875 181.058594 82.71875 180.820312 82.753906 180.578125 C 82.792969 180.332031 82.851562 180.085938 82.929688 179.839844 C 83.078125 179.347656 83.300781 178.851562 83.589844 178.367188 C 84.164062 177.398438 84.984375 176.480469 86.039062 175.734375 C 87.128906 174.988281 88.417969 174.410156 89.859375 174.085938 C 89.953125 174.820312 89.957031 175.527344 89.941406 176.214844 C 89.941406 176.902344 89.878906 177.5625 89.765625 178.191406 C 89.546875 179.449219 89.074219 180.578125 88.578125 181.511719 C 87.53125 183.371094 85.875 184.472656 84.117188 183.929688 Z M 85.902344 198.183594 C 86.132812 197.585938 86.398438 196.863281 86.679688 196.070312 C 86.824219 195.671875 86.953125 195.261719 87.121094 194.828125 C 87.289062 194.402344 87.460938 193.960938 87.636719 193.507812 C 88.34375 191.710938 89 189.839844 89.707031 188.1875 C 88.761719 189.726562 87.941406 191.542969 87.183594 193.316406 C 86.390625 195.09375 85.875 196.792969 85.515625 198.03125 C 84.667969 197.453125 84.148438 196.589844 83.9375 195.585938 C 83.78125 194.574219 83.945312 193.425781 84.390625 192.292969 C 84.613281 191.726562 84.910156 191.160156 85.273438 190.617188 C 85.632812 190.078125 86.109375 189.550781 86.625 189.0625 C 87.664062 188.085938 88.949219 187.261719 90.445312 186.691406 C 90.894531 188.222656 90.988281 189.714844 91.003906 191.089844 C 90.988281 191.777344 90.914062 192.441406 90.785156 193.070312 C 90.667969 193.699219 90.453125 194.296875 90.269531 194.835938 C 89.464844 196.996094 87.882812 198.460938 85.902344 198.183594 Z M 90.167969 212.675781 C 90.460938 211.316406 90.730469 209.433594 91.199219 207.386719 C 91.402344 206.386719 91.613281 205.34375 91.820312 204.316406 C 91.910156 203.8125 92.046875 203.300781 92.164062 202.808594 C 92.277344 202.3125 92.390625 201.832031 92.5 201.363281 C 92.160156 202.25 91.785156 203.230469 91.484375 204.226562 C 91.199219 205.21875 90.925781 206.246094 90.679688 207.253906 C 90.5625 207.761719 90.445312 208.265625 90.332031 208.746094 C 90.21875 209.238281 90.117188 209.714844 90.054688 210.160156 C 89.914062 211.0625 89.800781 211.886719 89.726562 212.582031 C 88.722656 212.109375 88 211.28125 87.617188 210.242188 C 87.273438 209.1875 87.238281 207.933594 87.515625 206.648438 C 87.660156 206.003906 87.859375 205.355469 88.171875 204.710938 C 88.492188 204.0625 88.890625 203.421875 89.359375 202.816406 C 90.296875 201.601562 91.527344 200.507812 93.027344 199.644531 C 93.398438 200.421875 93.683594 201.199219 93.894531 201.96875 C 93.996094 202.351562 94.082031 202.734375 94.148438 203.113281 C 94.234375 203.488281 94.308594 203.859375 94.363281 204.226562 C 94.582031 205.695312 94.496094 207.105469 94.226562 208.34375 C 93.753906 210.785156 92.324219 212.628906 90.167969 212.675781 Z M 97.109375 226.988281 C 97.140625 226.242188 97.164062 225.347656 97.183594 224.367188 C 97.1875 223.878906 97.195312 223.367188 97.203125 222.835938 C 97.207031 222.574219 97.210938 222.308594 97.214844 222.039062 C 97.226562 221.765625 97.242188 221.488281 97.253906 221.207031 C 97.300781 220.109375 97.347656 218.96875 97.394531 217.839844 C 97.40625 217.5625 97.414062 217.285156 97.425781 217.011719 C 97.4375 216.738281 97.464844 216.460938 97.480469 216.1875 C 97.515625 215.644531 97.550781 215.113281 97.585938 214.597656 C 97.480469 215.101562 97.375 215.625 97.277344 216.164062 C 97.230469 216.433594 97.179688 216.707031 97.132812 216.980469 C 97.089844 217.253906 97.058594 217.527344 97.023438 217.804688 C 96.890625 218.90625 96.777344 220.046875 96.6875 221.160156 C 96.582031 222.285156 96.574219 223.347656 96.574219 224.332031 C 96.574219 225.320312 96.597656 226.21875 96.636719 226.972656 C 95.496094 226.652344 94.609375 225.890625 94.007812 224.855469 C 93.859375 224.597656 93.726562 224.324219 93.613281 224.035156 C 93.511719 223.742188 93.433594 223.429688 93.371094 223.109375 C 93.25 222.46875 93.207031 221.78125 93.242188 221.070312 C 93.277344 220.363281 93.394531 219.632812 93.59375 218.898438 C 93.804688 218.164062 94.125 217.410156 94.515625 216.6875 C 95.296875 215.234375 96.414062 213.859375 97.851562 212.691406 C 98.921875 214.195312 99.558594 215.800781 100.070312 217.296875 C 100.546875 218.8125 100.683594 220.328125 100.667969 221.65625 C 100.566406 224.328125 99.371094 226.550781 97.109375 226.988281 Z M 107.042969 240.539062 C 106.925781 239.757812 106.765625 238.820312 106.585938 237.796875 C 106.410156 236.765625 106.265625 235.605469 106.082031 234.445312 C 105.996094 233.867188 105.90625 233.277344 105.816406 232.683594 C 105.726562 232.097656 105.671875 231.480469 105.597656 230.886719 C 105.457031 229.699219 105.3125 228.546875 105.167969 227.480469 C 105.148438 228.554688 105.164062 229.714844 105.203125 230.914062 C 105.222656 231.511719 105.25 232.121094 105.285156 232.730469 C 105.339844 233.324219 105.402344 233.917969 105.46875 234.503906 C 105.605469 235.679688 105.761719 236.828125 105.929688 237.882812 C 106.128906 238.90625 106.339844 239.839844 106.535156 240.617188 C 105.898438 240.5625 105.308594 240.382812 104.769531 240.097656 C 104.5 239.953125 104.242188 239.785156 104 239.589844 C 103.765625 239.390625 103.554688 239.160156 103.355469 238.910156 C 102.5625 237.910156 102.003906 236.585938 101.804688 235.085938 C 101.640625 233.558594 101.804688 231.882812 102.335938 230.226562 C 102.59375 229.40625 102.972656 228.570312 103.449219 227.753906 C 103.921875 226.941406 104.484375 226.152344 105.144531 225.402344 C 106.445312 226.839844 107.566406 228.28125 108.285156 229.816406 C 108.460938 230.207031 108.644531 230.574219 108.808594 230.945312 C 108.96875 231.316406 109.109375 231.691406 109.230469 232.0625 C 109.476562 232.804688 109.636719 233.546875 109.722656 234.269531 C 109.917969 235.695312 109.84375 237.007812 109.402344 238.117188 C 108.96875 239.21875 108.199219 240.089844 107.042969 240.539062 Z M 83.1875 162.136719 C 82.242188 162.308594 81.378906 162.054688 80.652344 161.457031 C 80.292969 161.15625 79.964844 160.769531 79.679688 160.308594 C 79.402344 159.847656 79.191406 159.320312 79.019531 158.726562 C 78.6875 157.542969 78.550781 156.109375 78.6875 154.5625 C 78.882812 153.03125 79.34375 151.382812 80.089844 149.773438 C 82.660156 151.617188 84.28125 154.148438 84.875 156.417969 C 85.21875 157.570312 85.292969 158.667969 85.074219 159.621094 C 84.964844 160.097656 84.78125 160.539062 84.523438 160.933594 C 84.261719 161.328125 83.964844 161.683594 83.558594 161.972656 C 83.464844 161.671875 83.359375 161.339844 83.246094 160.984375 C 83.144531 160.628906 83.03125 160.246094 82.917969 159.84375 C 82.671875 159.035156 82.402344 158.144531 82.125 157.21875 C 81.511719 155.347656 81.015625 153.34375 80.472656 151.542969 C 80.609375 152.488281 80.78125 153.480469 80.96875 154.46875 L 81.113281 155.207031 C 81.164062 155.457031 81.234375 155.703125 81.292969 155.949219 C 81.421875 156.441406 81.546875 156.925781 81.671875 157.402344 C 82.1875 159.296875 82.683594 160.972656 83.1875 162.136719 Z M 81.585938 175.972656 C 80.886719 174.765625 80.027344 172.984375 79.125 170.960938 C 78.890625 170.453125 78.707031 169.9375 78.507812 169.410156 C 78.3125 168.882812 78.117188 168.347656 77.929688 167.808594 C 77.558594 166.734375 77.175781 165.644531 76.898438 164.613281 C 77.742188 166.511719 78.699219 168.671875 79.59375 170.691406 C 80.554688 172.675781 81.402344 174.472656 81.957031 175.742188 C 82.773438 174.960938 83.199219 173.976562 83.273438 172.882812 C 83.308594 172.335938 83.257812 171.761719 83.128906 171.171875 C 82.992188 170.582031 82.835938 169.980469 82.570312 169.367188 C 82.054688 168.148438 81.234375 166.90625 80.152344 165.75 C 79.089844 164.597656 77.808594 163.539062 76.257812 162.707031 C 76.097656 163.183594 75.953125 163.660156 75.832031 164.136719 C 75.773438 164.371094 75.714844 164.609375 75.667969 164.84375 C 75.625 165.082031 75.59375 165.316406 75.5625 165.550781 C 75.445312 166.488281 75.398438 167.402344 75.421875 168.277344 C 75.433594 168.714844 75.460938 169.140625 75.503906 169.550781 C 75.527344 169.757812 75.550781 169.960938 75.582031 170.160156 C 75.625 170.363281 75.667969 170.558594 75.710938 170.75 C 75.898438 171.523438 76.140625 172.234375 76.429688 172.871094 C 77.011719 174.136719 77.773438 175.09375 78.660156 175.636719 C 79.566406 176.183594 80.570312 176.316406 81.585938 175.972656 Z M 82.101562 190.53125 C 81.632812 189.929688 81.082031 189.175781 80.476562 188.316406 C 80.175781 187.886719 79.863281 187.429688 79.539062 186.949219 C 79.226562 186.46875 78.871094 185.96875 78.578125 185.445312 C 77.96875 184.40625 77.34375 183.296875 76.742188 182.175781 C 76.449219 181.613281 76.132812 181.050781 75.875 180.488281 C 75.617188 179.925781 75.371094 179.367188 75.132812 178.820312 C 76.296875 180.816406 77.792969 183.042969 79.0625 185.070312 C 79.222656 185.320312 79.382812 185.570312 79.539062 185.820312 C 79.707031 186.066406 79.871094 186.304688 80.035156 186.542969 C 80.359375 187.019531 80.671875 187.476562 80.96875 187.910156 C 81.558594 188.78125 82.074219 189.558594 82.484375 190.207031 C 84.027344 188.21875 83.585938 185.644531 82.09375 183.136719 C 80.476562 180.648438 77.785156 178.175781 74.101562 176.8125 C 73.914062 177.917969 73.8125 179.007812 73.796875 180.066406 C 73.792969 180.328125 73.789062 180.589844 73.796875 180.847656 C 73.816406 181.109375 73.839844 181.363281 73.867188 181.617188 C 73.921875 182.121094 73.992188 182.617188 74.082031 183.097656 C 74.261719 184.058594 74.503906 184.957031 74.800781 185.78125 C 75.101562 186.605469 75.519531 187.347656 75.941406 187.996094 C 77.652344 190.605469 79.964844 191.652344 82.101562 190.53125 Z M 85.054688 205.519531 C 84.441406 204.949219 83.710938 204.230469 82.902344 203.402344 C 82.5 202.988281 82.078125 202.542969 81.640625 202.078125 C 81.425781 201.84375 81.199219 201.609375 80.984375 201.363281 C 80.777344 201.113281 80.566406 200.859375 80.355469 200.605469 C 79.507812 199.578125 78.636719 198.480469 77.785156 197.359375 C 77.34375 196.800781 76.964844 196.226562 76.585938 195.65625 C 76.207031 195.085938 75.839844 194.519531 75.488281 193.960938 C 75.898438 194.453125 76.324219 194.964844 76.761719 195.484375 C 76.972656 195.742188 77.191406 196.003906 77.40625 196.265625 C 77.617188 196.527344 77.84375 196.789062 78.078125 197.046875 C 78.992188 198.074219 79.914062 199.113281 80.804688 200.117188 C 81.253906 200.609375 81.652344 201.097656 82.097656 201.554688 C 82.535156 202.011719 82.953125 202.453125 83.355469 202.875 C 84.148438 203.714844 84.847656 204.464844 85.414062 205.09375 C 86.058594 203.882812 86.171875 202.597656 85.835938 201.3125 C 85.753906 200.992188 85.640625 200.671875 85.503906 200.351562 C 85.386719 200.027344 85.238281 199.703125 85.070312 199.382812 C 84.726562 198.742188 84.285156 198.113281 83.75 197.5 C 83.222656 196.886719 82.582031 196.300781 81.902344 195.734375 C 81.234375 195.167969 80.488281 194.632812 79.671875 194.148438 C 78.039062 193.171875 76.125 192.382812 74.023438 191.945312 C 73.917969 196.910156 75.597656 201.328125 77.925781 203.839844 C 80.253906 206.382812 82.9375 207.113281 85.054688 205.519531 Z M 90.6875 220.546875 C 89.894531 220.058594 89.007812 219.40625 87.984375 218.660156 C 87.480469 218.285156 86.949219 217.882812 86.398438 217.460938 C 85.835938 217.039062 85.300781 216.578125 84.757812 216.097656 C 83.664062 215.140625 82.527344 214.109375 81.410156 213.050781 C 80.324219 211.976562 79.316406 210.855469 78.351562 209.777344 C 79.40625 210.691406 80.53125 211.671875 81.671875 212.664062 C 82.835938 213.609375 84.015625 214.566406 85.15625 215.492188 C 85.722656 215.945312 86.242188 216.398438 86.796875 216.8125 C 87.34375 217.230469 87.875 217.628906 88.378906 218.011719 C 89.382812 218.773438 90.261719 219.460938 90.984375 220.03125 C 91.457031 218.617188 91.351562 217.210938 90.765625 215.890625 C 90.621094 215.558594 90.4375 215.238281 90.242188 214.914062 C 90.058594 214.585938 89.84375 214.265625 89.601562 213.953125 C 89.121094 213.324219 88.53125 212.722656 87.851562 212.160156 C 87.507812 211.878906 87.144531 211.605469 86.757812 211.34375 C 86.566406 211.214844 86.367188 211.085938 86.164062 210.957031 C 85.972656 210.828125 85.773438 210.703125 85.566406 210.578125 C 84.75 210.085938 83.851562 209.636719 82.886719 209.253906 C 81.921875 208.871094 80.890625 208.546875 79.808594 208.304688 C 78.722656 208.0625 77.585938 207.902344 76.441406 207.832031 C 76.460938 208.003906 76.480469 208.171875 76.5 208.339844 C 76.53125 208.503906 76.5625 208.671875 76.59375 208.835938 C 76.65625 209.164062 76.726562 209.488281 76.800781 209.808594 C 76.953125 210.449219 77.125 211.078125 77.316406 211.6875 C 77.511719 212.296875 77.722656 212.890625 77.949219 213.460938 C 78.171875 214.035156 78.472656 214.566406 78.75 215.085938 C 79.910156 217.152344 81.214844 218.871094 82.730469 220.015625 C 84.203125 221.175781 85.691406 221.847656 87.066406 221.945312 C 88.46875 222.039062 89.714844 221.578125 90.6875 220.546875 Z M 99.25 235.113281 C 98.328125 234.730469 97.207031 234.242188 95.96875 233.644531 C 94.773438 233.019531 93.449219 232.292969 92.066406 231.496094 C 91.363281 231.101562 90.6875 230.664062 90.007812 230.210938 C 89.324219 229.761719 88.636719 229.296875 87.953125 228.824219 C 86.554688 227.894531 85.289062 226.859375 84.074219 225.863281 C 86.644531 227.503906 89.648438 229.234375 92.363281 230.777344 C 93.742188 231.515625 95.070312 232.226562 96.277344 232.875 C 96.863281 233.203125 97.460938 233.480469 97.996094 233.753906 C 98.53125 234.023438 99.027344 234.277344 99.476562 234.503906 C 99.695312 232.917969 99.253906 231.484375 98.441406 230.152344 C 98.023438 229.496094 97.480469 228.882812 96.828125 228.316406 C 96.664062 228.175781 96.492188 228.039062 96.316406 227.902344 C 96.148438 227.761719 95.976562 227.625 95.796875 227.492188 C 95.433594 227.222656 95.046875 226.96875 94.640625 226.726562 C 93.820312 226.242188 92.910156 225.8125 91.917969 225.449219 C 91.417969 225.269531 90.925781 225.09375 90.410156 224.933594 C 89.894531 224.777344 89.363281 224.632812 88.816406 224.511719 C 86.632812 224.027344 84.179688 223.851562 81.683594 224.117188 C 82.582031 226.929688 83.851562 229.488281 85.476562 231.5 C 87.019531 233.558594 88.894531 235.066406 90.644531 236.066406 C 91.089844 236.3125 91.515625 236.535156 91.957031 236.707031 C 92.402344 236.875 92.839844 237.011719 93.265625 237.113281 C 94.117188 237.3125 94.925781 237.378906 95.671875 237.296875 C 97.164062 237.140625 98.398438 236.410156 99.25 235.113281 Z M 110.949219 248.617188 C 108.808594 248.230469 105.851562 247.382812 102.609375 246.21875 C 101.03125 245.597656 99.339844 244.933594 97.714844 244.183594 C 96.117188 243.40625 94.507812 242.597656 93.019531 241.769531 C 94.554688 242.363281 96.195312 243 97.859375 243.644531 C 98.664062 243.96875 99.523438 244.25 100.351562 244.539062 C 101.175781 244.824219 101.992188 245.109375 102.800781 245.390625 C 103.195312 245.527344 103.589844 245.664062 103.976562 245.796875 C 104.375 245.917969 104.769531 246.039062 105.15625 246.15625 C 105.917969 246.390625 106.65625 246.617188 107.359375 246.835938 C 108.058594 247.046875 108.707031 247.261719 109.328125 247.441406 C 109.949219 247.621094 110.527344 247.78125 111.050781 247.929688 C 111.003906 247.070312 110.777344 246.300781 110.453125 245.558594 C 110.128906 244.816406 109.667969 244.140625 109.085938 243.539062 C 107.894531 242.355469 106.335938 241.347656 104.386719 240.664062 C 103.90625 240.492188 103.386719 240.347656 102.875 240.203125 C 102.363281 240.054688 101.832031 239.929688 101.28125 239.820312 C 100.183594 239.609375 99.011719 239.476562 97.792969 239.433594 C 96.558594 239.402344 95.328125 239.421875 94.054688 239.558594 C 92.785156 239.699219 91.484375 239.945312 90.183594 240.320312 C 90.914062 241.746094 91.707031 243.109375 92.664062 244.285156 C 93.128906 244.878906 93.609375 245.449219 94.101562 245.988281 C 94.589844 246.527344 95.082031 247.046875 95.621094 247.496094 C 96.679688 248.410156 97.757812 249.207031 98.820312 249.859375 C 99.34375 250.199219 99.910156 250.460938 100.445312 250.707031 C 100.984375 250.949219 101.515625 251.15625 102.039062 251.332031 C 103.085938 251.671875 104.070312 251.890625 105.011719 251.9375 C 105.957031 251.980469 106.832031 251.878906 107.605469 251.644531 C 109.160156 251.175781 110.316406 250.152344 110.949219 248.617188 Z M 290.992188 154.269531 C 290.820312 154.101562 290.632812 153.917969 290.425781 153.71875 C 290.21875 153.523438 289.992188 153.3125 289.757812 153.089844 C 289.292969 152.640625 288.785156 152.148438 288.257812 151.636719 C 287.746094 151.128906 287.214844 150.601562 286.691406 150.078125 C 286.152344 149.5625 285.613281 149.0625 285.128906 148.585938 C 285.679688 148.984375 286.261719 149.425781 286.851562 149.890625 C 287.410156 150.363281 287.964844 150.859375 288.503906 151.351562 C 289.566406 152.339844 290.582031 153.304688 291.210938 154.039062 C 292 152.695312 291.425781 151.03125 290.117188 149.75 C 289.472656 149.105469 288.554688 148.585938 287.539062 148.234375 C 286.515625 147.882812 285.367188 147.707031 284.148438 147.769531 C 284.234375 148.378906 284.371094 148.953125 284.550781 149.496094 C 284.726562 150.042969 284.964844 150.546875 285.175781 151.03125 C 285.628906 151.992188 286.21875 152.800781 286.875 153.414062 C 288.210938 154.632812 289.710938 155.125 290.992188 154.269531 Z M 293.300781 167.179688 C 291.796875 167.902344 290.144531 167.136719 288.925781 165.597656 C 287.753906 164.035156 286.804688 161.730469 286.824219 159.027344 C 288.191406 159.128906 289.390625 159.496094 290.449219 160.035156 C 291.5 160.574219 292.382812 161.289062 293.039062 162.085938 C 293.714844 162.878906 294.078125 163.761719 294.175781 164.613281 C 294.273438 165.464844 294.085938 166.28125 293.5625 166.960938 C 292.960938 166.058594 292.058594 164.835938 291.0625 163.59375 C 290.015625 162.355469 288.824219 161.101562 287.769531 160.0625 C 288.214844 160.65625 288.707031 161.289062 289.214844 161.933594 C 289.472656 162.253906 289.730469 162.578125 289.988281 162.902344 C 290.25 163.222656 290.507812 163.546875 290.738281 163.867188 C 291.695312 165.144531 292.617188 166.34375 293.300781 167.179688 Z M 293.707031 180.875 C 293.410156 180.367188 293.066406 179.746094 292.691406 179.066406 C 292.3125 178.382812 291.945312 177.640625 291.476562 176.871094 C 291.039062 176.109375 290.582031 175.320312 290.132812 174.542969 C 289.683594 173.769531 289.300781 173.011719 288.855469 172.304688 C 289.394531 172.941406 289.871094 173.648438 290.378906 174.378906 C 290.878906 175.113281 291.378906 175.875 291.851562 176.628906 C 292.085938 177.003906 292.328125 177.378906 292.53125 177.746094 C 292.730469 178.117188 292.921875 178.472656 293.105469 178.816406 C 293.464844 179.503906 293.78125 180.140625 294.03125 180.675781 C 294.714844 180.03125 295.058594 179.175781 295.101562 178.234375 C 295.109375 178 295.105469 177.761719 295.070312 177.519531 C 295.03125 177.277344 294.972656 177.03125 294.898438 176.785156 C 294.746094 176.289062 294.523438 175.792969 294.238281 175.308594 C 293.660156 174.339844 292.839844 173.425781 291.785156 172.675781 C 290.699219 171.929688 289.410156 171.351562 287.964844 171.03125 C 287.871094 171.761719 287.867188 172.472656 287.882812 173.15625 C 287.882812 173.84375 287.945312 174.503906 288.058594 175.132812 C 288.277344 176.390625 288.753906 177.523438 289.246094 178.457031 C 290.296875 180.3125 291.949219 181.414062 293.707031 180.875 Z M 291.921875 195.125 C 291.691406 194.527344 291.425781 193.804688 291.148438 193.011719 C 291 192.613281 290.871094 192.203125 290.707031 191.773438 C 290.539062 191.34375 290.363281 190.902344 290.1875 190.453125 C 289.480469 188.65625 288.828125 186.78125 288.121094 185.128906 C 289.0625 186.667969 289.882812 188.484375 290.640625 190.257812 C 291.433594 192.039062 291.949219 193.738281 292.308594 194.976562 C 293.15625 194.394531 293.675781 193.53125 293.886719 192.53125 C 294.042969 191.519531 293.878906 190.367188 293.433594 189.234375 C 293.210938 188.667969 292.917969 188.105469 292.554688 187.5625 C 292.195312 187.019531 291.714844 186.492188 291.203125 186.007812 C 290.164062 185.03125 288.875 184.207031 287.382812 183.632812 C 286.929688 185.164062 286.835938 186.65625 286.824219 188.03125 C 286.835938 188.71875 286.910156 189.382812 287.039062 190.011719 C 287.160156 190.640625 287.371094 191.238281 287.558594 191.78125 C 288.359375 193.941406 289.941406 195.40625 291.921875 195.125 Z M 287.65625 209.617188 C 287.367188 208.261719 287.09375 206.375 286.628906 204.332031 C 286.425781 203.328125 286.214844 202.289062 286.003906 201.261719 C 285.914062 200.757812 285.777344 200.246094 285.664062 199.75 C 285.546875 199.257812 285.4375 198.773438 285.328125 198.304688 C 285.667969 199.195312 286.039062 200.171875 286.34375 201.171875 C 286.628906 202.164062 286.898438 203.1875 287.144531 204.199219 C 287.265625 204.707031 287.382812 205.207031 287.496094 205.691406 C 287.609375 206.179688 287.707031 206.65625 287.769531 207.101562 C 287.910156 208.003906 288.023438 208.832031 288.101562 209.523438 C 289.101562 209.050781 289.828125 208.226562 290.207031 207.183594 C 290.550781 206.128906 290.585938 204.875 290.308594 203.589844 C 290.167969 202.945312 289.964844 202.296875 289.652344 201.652344 C 289.332031 201.003906 288.9375 200.367188 288.464844 199.757812 C 287.527344 198.542969 286.296875 197.449219 284.796875 196.589844 C 284.425781 197.363281 284.140625 198.140625 283.933594 198.910156 C 283.828125 199.292969 283.742188 199.679688 283.675781 200.058594 C 283.589844 200.433594 283.515625 200.804688 283.460938 201.171875 C 283.242188 202.636719 283.328125 204.050781 283.601562 205.289062 C 284.074219 207.726562 285.5 209.570312 287.65625 209.617188 Z M 280.71875 223.933594 C 280.683594 223.1875 280.660156 222.292969 280.644531 221.308594 C 280.636719 220.820312 280.628906 220.308594 280.621094 219.78125 C 280.617188 219.519531 280.613281 219.25 280.613281 218.980469 C 280.597656 218.707031 280.585938 218.429688 280.570312 218.152344 C 280.523438 217.050781 280.476562 215.910156 280.429688 214.78125 C 280.417969 214.503906 280.410156 214.230469 280.402344 213.957031 C 280.390625 213.683594 280.363281 213.402344 280.34375 213.128906 C 280.308594 212.589844 280.273438 212.058594 280.238281 211.542969 C 280.347656 212.042969 280.449219 212.566406 280.546875 213.105469 C 280.59375 213.375 280.644531 213.648438 280.691406 213.925781 C 280.734375 214.199219 280.765625 214.46875 280.800781 214.746094 C 280.933594 215.847656 281.046875 216.988281 281.136719 218.105469 C 281.242188 219.230469 281.25 220.289062 281.25 221.277344 C 281.25 222.261719 281.226562 223.164062 281.191406 223.914062 C 282.332031 223.59375 283.21875 222.832031 283.816406 221.800781 C 283.96875 221.542969 284.097656 221.269531 284.210938 220.980469 C 284.3125 220.683594 284.390625 220.375 284.453125 220.050781 C 284.574219 219.410156 284.621094 218.722656 284.582031 218.015625 C 284.546875 217.304688 284.429688 216.574219 284.230469 215.84375 C 284.019531 215.105469 283.699219 214.355469 283.3125 213.628906 C 282.527344 212.175781 281.414062 210.804688 279.972656 209.632812 C 278.90625 211.136719 278.269531 212.742188 277.753906 214.238281 C 277.28125 215.753906 277.140625 217.269531 277.160156 218.597656 C 277.257812 221.273438 278.453125 223.496094 280.71875 223.933594 Z M 270.78125 237.484375 C 270.898438 236.699219 271.058594 235.761719 271.242188 234.738281 C 271.414062 233.707031 271.5625 232.546875 271.742188 231.386719 C 271.828125 230.808594 271.917969 230.21875 272.007812 229.625 C 272.101562 229.039062 272.152344 228.421875 272.226562 227.832031 C 272.367188 226.640625 272.511719 225.488281 272.65625 224.421875 C 272.675781 225.496094 272.664062 226.65625 272.625 227.855469 C 272.601562 228.457031 272.574219 229.0625 272.542969 229.671875 C 272.488281 230.265625 272.421875 230.859375 272.355469 231.449219 C 272.222656 232.621094 272.0625 233.769531 271.898438 234.824219 C 271.695312 235.851562 271.488281 236.785156 271.292969 237.558594 C 271.925781 237.507812 272.519531 237.328125 273.054688 237.039062 C 273.324219 236.898438 273.582031 236.726562 273.824219 236.535156 C 274.058594 236.332031 274.269531 236.101562 274.472656 235.855469 C 275.265625 234.855469 275.820312 233.53125 276.019531 232.027344 C 276.183594 230.5 276.023438 228.824219 275.488281 227.171875 C 275.230469 226.351562 274.851562 225.511719 274.378906 224.699219 C 273.90625 223.882812 273.339844 223.097656 272.679688 222.34375 C 271.382812 223.78125 270.261719 225.222656 269.539062 226.761719 C 269.363281 227.148438 269.183594 227.519531 269.019531 227.890625 C 268.855469 228.261719 268.714844 228.632812 268.59375 229.003906 C 268.351562 229.75 268.1875 230.492188 268.101562 231.214844 C 267.90625 232.636719 267.980469 233.949219 268.421875 235.058594 C 268.855469 236.160156 269.625 237.03125 270.78125 237.484375 Z M 294.636719 159.082031 C 295.582031 159.25 296.449219 159 297.171875 158.398438 C 297.535156 158.097656 297.863281 157.710938 298.148438 157.25 C 298.421875 156.792969 298.636719 156.261719 298.804688 155.667969 C 299.140625 154.484375 299.273438 153.050781 299.140625 151.503906 C 298.941406 149.972656 298.484375 148.328125 297.734375 146.71875 C 295.167969 148.5625 293.542969 151.089844 292.949219 153.363281 C 292.609375 154.511719 292.53125 155.609375 292.75 156.5625 C 292.863281 157.039062 293.042969 157.480469 293.304688 157.875 C 293.566406 158.269531 293.863281 158.625 294.265625 158.917969 C 294.359375 158.617188 294.464844 158.285156 294.578125 157.925781 C 294.683594 157.570312 294.792969 157.1875 294.910156 156.789062 C 295.152344 155.976562 295.421875 155.085938 295.699219 154.164062 C 296.3125 152.289062 296.808594 150.289062 297.355469 148.484375 C 297.214844 149.429688 297.042969 150.421875 296.855469 151.410156 L 296.710938 152.152344 C 296.660156 152.398438 296.59375 152.648438 296.53125 152.894531 C 296.40625 153.382812 296.277344 153.867188 296.152344 154.34375 C 295.636719 156.238281 295.140625 157.917969 294.636719 159.082031 Z M 296.242188 172.914062 C 296.9375 171.707031 297.796875 169.929688 298.699219 167.902344 C 298.933594 167.394531 299.117188 166.878906 299.316406 166.351562 C 299.515625 165.824219 299.707031 165.289062 299.898438 164.75 C 300.265625 163.675781 300.652344 162.585938 300.929688 161.554688 C 300.085938 163.453125 299.125 165.613281 298.230469 167.632812 C 297.273438 169.617188 296.421875 171.414062 295.867188 172.6875 C 295.054688 171.902344 294.625 170.921875 294.550781 169.828125 C 294.515625 169.28125 294.566406 168.707031 294.699219 168.117188 C 294.835938 167.523438 294.992188 166.921875 295.257812 166.308594 C 295.773438 165.089844 296.59375 163.847656 297.675781 162.691406 C 298.734375 161.539062 300.015625 160.480469 301.566406 159.652344 C 301.730469 160.128906 301.871094 160.605469 301.992188 161.078125 C 302.054688 161.316406 302.113281 161.550781 302.160156 161.785156 C 302.199219 162.023438 302.234375 162.257812 302.261719 162.492188 C 302.382812 163.429688 302.425781 164.347656 302.402344 165.21875 C 302.390625 165.65625 302.363281 166.082031 302.320312 166.496094 C 302.296875 166.699219 302.273438 166.902344 302.242188 167.105469 C 302.203125 167.304688 302.160156 167.5 302.113281 167.695312 C 301.925781 168.46875 301.683594 169.179688 301.394531 169.8125 C 300.8125 171.082031 300.050781 172.035156 299.164062 172.582031 C 298.257812 173.125 297.257812 173.261719 296.242188 172.914062 Z M 295.722656 187.472656 C 296.191406 186.871094 296.746094 186.121094 297.347656 185.257812 C 297.648438 184.828125 297.960938 184.371094 298.285156 183.890625 C 298.601562 183.410156 298.953125 182.910156 299.246094 182.390625 C 299.855469 181.347656 300.480469 180.242188 301.082031 179.117188 C 301.375 178.558594 301.691406 177.992188 301.949219 177.429688 C 302.207031 176.867188 302.457031 176.308594 302.691406 175.761719 C 301.527344 177.757812 300.03125 179.988281 298.761719 182.011719 C 298.601562 182.265625 298.445312 182.515625 298.289062 182.761719 C 298.121094 183.007812 297.953125 183.25 297.789062 183.488281 C 297.46875 183.960938 297.15625 184.417969 296.855469 184.855469 C 296.269531 185.722656 295.753906 186.503906 295.339844 187.148438 C 293.800781 185.164062 294.238281 182.585938 295.734375 180.078125 C 297.347656 177.589844 300.039062 175.117188 303.726562 173.753906 C 303.914062 174.859375 304.011719 175.953125 304.03125 177.007812 C 304.03125 177.269531 304.035156 177.53125 304.027344 177.792969 C 304.007812 178.050781 303.984375 178.304688 303.960938 178.558594 C 303.90625 179.066406 303.832031 179.558594 303.742188 180.039062 C 303.566406 181 303.320312 181.902344 303.023438 182.726562 C 302.722656 183.546875 302.304688 184.289062 301.882812 184.9375 C 300.175781 187.546875 297.859375 188.59375 295.722656 187.472656 Z M 292.769531 202.460938 C 293.382812 201.890625 294.117188 201.175781 294.921875 200.34375 C 295.328125 199.929688 295.75 199.488281 296.183594 199.023438 C 296.398438 198.789062 296.625 198.550781 296.839844 198.304688 C 297.046875 198.054688 297.257812 197.804688 297.46875 197.550781 C 298.316406 196.523438 299.191406 195.421875 300.042969 194.300781 C 300.480469 193.742188 300.859375 193.167969 301.238281 192.597656 C 301.617188 192.03125 301.984375 191.464844 302.335938 190.90625 C 301.925781 191.398438 301.5 191.90625 301.066406 192.429688 C 300.851562 192.6875 300.636719 192.945312 300.417969 193.207031 C 300.207031 193.46875 299.984375 193.730469 299.746094 193.992188 C 298.835938 195.015625 297.910156 196.054688 297.019531 197.058594 C 296.574219 197.550781 296.171875 198.042969 295.726562 198.5 C 295.292969 198.953125 294.871094 199.398438 294.472656 199.816406 C 293.675781 200.65625 292.976562 201.40625 292.410156 202.035156 C 291.765625 200.828125 291.652344 199.539062 291.988281 198.253906 C 292.070312 197.933594 292.1875 197.613281 292.320312 197.292969 C 292.441406 196.96875 292.585938 196.644531 292.757812 196.328125 C 293.097656 195.683594 293.542969 195.054688 294.074219 194.445312 C 294.605469 193.832031 295.242188 193.242188 295.925781 192.679688 C 296.589844 192.113281 297.335938 191.578125 298.152344 191.089844 C 299.785156 190.117188 301.699219 189.324219 303.804688 188.890625 C 303.90625 193.851562 302.226562 198.269531 299.898438 200.78125 C 297.574219 203.328125 294.890625 204.054688 292.769531 202.460938 Z M 287.136719 217.488281 C 287.933594 217.003906 288.820312 216.347656 289.839844 215.605469 C 290.347656 215.230469 290.878906 214.828125 291.425781 214.402344 C 291.988281 213.980469 292.523438 213.519531 293.066406 213.042969 C 294.164062 212.085938 295.296875 211.050781 296.417969 209.992188 C 297.503906 208.921875 298.507812 207.796875 299.472656 206.71875 C 298.421875 207.636719 297.296875 208.613281 296.152344 209.605469 C 294.988281 210.550781 293.8125 211.507812 292.671875 212.433594 C 292.105469 212.886719 291.582031 213.339844 291.027344 213.757812 C 290.480469 214.171875 289.953125 214.574219 289.445312 214.957031 C 288.445312 215.71875 287.5625 216.402344 286.839844 216.972656 C 286.367188 215.558594 286.472656 214.152344 287.058594 212.832031 C 287.203125 212.5 287.386719 212.179688 287.582031 211.855469 C 287.769531 211.53125 287.984375 211.207031 288.222656 210.894531 C 288.707031 210.265625 289.292969 209.667969 289.976562 209.101562 C 290.316406 208.820312 290.679688 208.550781 291.066406 208.285156 C 291.257812 208.15625 291.457031 208.027344 291.660156 207.902344 C 291.855469 207.769531 292.054688 207.644531 292.257812 207.523438 C 293.074219 207.027344 293.972656 206.582031 294.9375 206.195312 C 295.902344 205.8125 296.933594 205.488281 298.019531 205.246094 C 299.105469 205.003906 300.242188 204.84375 301.382812 204.777344 C 301.363281 204.945312 301.34375 205.113281 301.324219 205.28125 C 301.292969 205.449219 301.265625 205.613281 301.234375 205.777344 C 301.167969 206.105469 301.097656 206.429688 301.023438 206.75 C 300.871094 207.390625 300.699219 208.019531 300.507812 208.628906 C 300.316406 209.242188 300.101562 209.832031 299.875 210.402344 C 299.65625 210.980469 299.355469 211.507812 299.074219 212.03125 C 297.917969 214.09375 296.609375 215.8125 295.097656 216.957031 C 293.621094 218.121094 292.132812 218.789062 290.757812 218.890625 C 289.359375 218.980469 288.109375 218.519531 287.136719 217.488281 Z M 278.578125 232.054688 C 279.496094 231.675781 280.617188 231.183594 281.855469 230.585938 C 283.054688 229.960938 284.375 229.238281 285.757812 228.4375 C 286.464844 228.046875 287.136719 227.609375 287.816406 227.15625 C 288.5 226.707031 289.1875 226.242188 289.875 225.769531 C 291.273438 224.835938 292.535156 223.804688 293.753906 222.804688 C 291.183594 224.449219 288.175781 226.179688 285.460938 227.722656 C 284.082031 228.460938 282.753906 229.171875 281.546875 229.820312 C 280.964844 230.144531 280.363281 230.421875 279.828125 230.695312 C 279.292969 230.96875 278.796875 231.21875 278.347656 231.449219 C 278.128906 229.859375 278.570312 228.429688 279.382812 227.09375 C 279.804688 226.4375 280.347656 225.824219 281 225.261719 C 281.164062 225.121094 281.332031 224.980469 281.507812 224.847656 C 281.675781 224.707031 281.851562 224.566406 282.03125 224.433594 C 282.390625 224.164062 282.777344 223.910156 283.1875 223.667969 C 284.003906 223.1875 284.917969 222.757812 285.90625 222.390625 C 286.410156 222.214844 286.902344 222.035156 287.414062 221.875 C 287.929688 221.71875 288.460938 221.578125 289.007812 221.457031 C 291.191406 220.96875 293.648438 220.792969 296.140625 221.058594 C 295.242188 223.871094 293.972656 226.429688 292.347656 228.441406 C 290.808594 230.5 288.933594 232.011719 287.179688 233.007812 C 286.738281 233.253906 286.308594 233.476562 285.867188 233.648438 C 285.421875 233.816406 284.984375 233.953125 284.558594 234.054688 C 283.707031 234.257812 282.898438 234.320312 282.152344 234.242188 C 280.660156 234.082031 279.425781 233.351562 278.578125 232.054688 Z M 266.878906 245.558594 C 269.019531 245.175781 271.972656 244.324219 275.214844 243.160156 C 276.796875 242.542969 278.484375 241.878906 280.113281 241.125 C 281.710938 240.347656 283.316406 239.539062 284.804688 238.714844 C 283.269531 239.308594 281.628906 239.941406 279.96875 240.585938 C 279.160156 240.914062 278.304688 241.195312 277.472656 241.484375 C 276.652344 241.769531 275.832031 242.050781 275.027344 242.332031 C 274.628906 242.46875 274.238281 242.605469 273.847656 242.738281 C 273.449219 242.863281 273.058594 242.980469 272.671875 243.101562 C 271.910156 243.335938 271.171875 243.5625 270.464844 243.777344 C 269.765625 243.992188 269.117188 244.207031 268.496094 244.386719 C 267.875 244.5625 267.296875 244.726562 266.773438 244.875 C 266.820312 244.015625 267.046875 243.242188 267.375 242.503906 C 267.695312 241.757812 268.15625 241.085938 268.738281 240.480469 C 269.933594 239.300781 271.488281 238.289062 273.4375 237.609375 C 273.921875 237.433594 274.441406 237.289062 274.953125 237.144531 C 275.464844 237 275.996094 236.871094 276.542969 236.765625 C 277.644531 236.550781 278.8125 236.417969 280.03125 236.375 C 281.265625 236.34375 282.496094 236.363281 283.769531 236.503906 C 285.042969 236.640625 286.34375 236.886719 287.644531 237.261719 C 286.914062 238.691406 286.121094 240.050781 285.164062 241.226562 C 284.695312 241.824219 284.214844 242.390625 283.726562 242.929688 C 283.234375 243.46875 282.746094 243.988281 282.203125 244.4375 C 281.148438 245.355469 280.070312 246.148438 279.003906 246.804688 C 278.480469 247.140625 277.917969 247.402344 277.382812 247.648438 C 276.839844 247.890625 276.308594 248.101562 275.789062 248.273438 C 274.742188 248.617188 273.757812 248.835938 272.816406 248.882812 C 271.867188 248.921875 270.996094 248.824219 270.21875 248.589844 C 268.667969 248.117188 267.507812 247.09375 266.878906 245.558594 Z M 292.449219 148.1875 C 292.242188 147.476562 291.972656 146.617188 291.65625 145.667969 C 291.496094 145.195312 291.328125 144.695312 291.15625 144.183594 C 291.066406 143.929688 290.984375 143.664062 290.882812 143.40625 C 290.773438 143.148438 290.667969 142.886719 290.558594 142.625 C 290.121094 141.570312 289.652344 140.484375 289.183594 139.421875 C 288.960938 138.882812 288.671875 138.378906 288.414062 137.871094 C 288.148438 137.371094 287.882812 136.878906 287.628906 136.40625 C 287.824219 136.90625 288.027344 137.425781 288.230469 137.953125 C 288.433594 138.480469 288.671875 139.003906 288.851562 139.558594 C 289.238281 140.65625 289.644531 141.757812 290.046875 142.816406 C 290.144531 143.082031 290.246094 143.34375 290.347656 143.601562 C 290.441406 143.863281 290.519531 144.125 290.609375 144.378906 C 290.78125 144.890625 290.949219 145.382812 291.109375 145.851562 C 291.4375 146.792969 291.746094 147.632812 292.015625 148.324219 C 290.894531 148.394531 289.886719 148 289.050781 147.273438 C 288.632812 146.910156 288.257812 146.464844 287.933594 145.945312 C 287.605469 145.429688 287.351562 144.835938 287.082031 144.207031 C 286.566406 142.945312 286.300781 141.433594 286.246094 139.792969 C 286.140625 138.171875 286.304688 136.394531 286.78125 134.546875 C 288.464844 135.332031 289.945312 136.433594 291.15625 137.671875 C 292.324219 138.929688 293.167969 140.351562 293.714844 141.714844 C 294 142.394531 294.136719 143.085938 294.210938 143.734375 C 294.28125 144.386719 294.269531 145.007812 294.167969 145.574219 C 293.960938 146.707031 293.398438 147.621094 292.449219 148.1875 Z M 85.375 151.246094 C 85.585938 150.53125 85.855469 149.675781 86.167969 148.726562 C 86.328125 148.25 86.496094 147.753906 86.667969 147.238281 C 86.757812 146.984375 86.839844 146.722656 86.945312 146.464844 C 87.050781 146.207031 87.160156 145.945312 87.265625 145.679688 C 87.707031 144.628906 88.171875 143.542969 88.644531 142.476562 C 88.867188 141.9375 89.15625 141.433594 89.410156 140.929688 C 89.679688 140.429688 89.941406 139.9375 90.195312 139.460938 C 90 139.964844 89.800781 140.480469 89.59375 141.011719 C 89.394531 141.539062 89.152344 142.0625 88.972656 142.617188 C 88.585938 143.710938 88.183594 144.816406 87.78125 145.875 C 87.679688 146.140625 87.578125 146.402344 87.480469 146.660156 C 87.382812 146.917969 87.304688 147.183594 87.21875 147.4375 C 87.042969 147.949219 86.875 148.441406 86.714844 148.910156 C 86.386719 149.847656 86.082031 150.6875 85.808594 151.378906 C 86.929688 151.453125 87.9375 151.054688 88.773438 150.332031 C 89.191406 149.96875 89.566406 149.519531 89.890625 149.003906 C 90.21875 148.488281 90.472656 147.894531 90.742188 147.265625 C 91.257812 146 91.523438 144.488281 91.582031 142.847656 C 91.683594 141.226562 91.523438 139.453125 91.046875 137.605469 C 89.359375 138.390625 87.878906 139.488281 86.667969 140.730469 C 85.5 141.988281 84.65625 143.40625 84.109375 144.773438 C 83.824219 145.449219 83.6875 146.144531 83.613281 146.792969 C 83.542969 147.445312 83.554688 148.0625 83.660156 148.628906 C 83.863281 149.761719 84.429688 150.675781 85.375 151.246094 " fill-opacity="1" fill-rule="evenodd"/></g><g clip-path="url(#3e44653be0)"><path fill="#285430" d="M 224.566406 223.652344 C 228.242188 223.5625 232.007812 223.03125 235.757812 222.066406 C 236.074219 221.980469 236.335938 221.753906 236.460938 221.449219 C 236.589844 221.148438 236.5625 220.800781 236.398438 220.519531 L 226.125 203.0625 C 225.917969 202.707031 225.523438 202.511719 225.121094 202.546875 L 222.269531 202.808594 L 222.269531 202.84375 L 222.144531 202.617188 C 222.03125 202.425781 221.796875 202.347656 221.59375 202.449219 C 221.359375 202.5625 221.121094 202.667969 220.875 202.757812 L 219.457031 200.28125 C 219.34375 200.089844 219.109375 200.011719 218.90625 200.113281 C 216.246094 201.394531 212.984375 201.574219 208.652344 200.664062 C 207.523438 200.421875 206.378906 200.132812 205.273438 199.851562 C 202.941406 199.257812 200.535156 198.652344 198.09375 198.480469 C 196.5 198.375 194.75 198.8125 192.894531 199.78125 C 191.179688 200.675781 189.753906 201.828125 188.792969 202.722656 C 187.835938 201.828125 186.410156 200.675781 184.695312 199.78125 C 182.847656 198.8125 181.097656 198.375 179.496094 198.480469 C 177.046875 198.644531 174.644531 199.257812 172.316406 199.851562 C 171.210938 200.132812 170.066406 200.421875 168.9375 200.664062 C 164.605469 201.574219 161.34375 201.394531 158.683594 200.113281 C 158.488281 200.011719 158.246094 200.089844 158.132812 200.28125 L 156.738281 202.75 C 156.488281 202.652344 156.25 202.554688 156.015625 202.441406 C 155.820312 202.34375 155.578125 202.417969 155.464844 202.609375 L 155.347656 202.820312 L 155.347656 202.800781 L 152.707031 202.539062 C 152.296875 202.496094 151.902344 202.703125 151.699219 203.054688 L 141.425781 220.511719 C 141.261719 220.789062 141.234375 221.125 141.351562 221.429688 C 141.472656 221.734375 141.71875 221.960938 142.03125 222.050781 C 147.175781 223.601562 152.320312 224.28125 157.324219 224.070312 C 161.683594 223.886719 165.558594 223.058594 168.972656 222.324219 C 174.652344 221.113281 179.132812 220.160156 182.980469 222.679688 C 183.839844 223.242188 184.632812 223.949219 185.308594 224.773438 C 185.507812 225.015625 185.804688 225.15625 186.121094 225.15625 L 191.058594 225.15625 C 191.363281 225.15625 191.644531 225.027344 191.851562 224.804688 C 192.773438 223.757812 193.832031 222.882812 195.011719 222.214844 C 199.183594 219.8125 203.640625 220.730469 209.285156 221.894531 C 213.605469 222.785156 218.523438 223.792969 224.566406 223.652344 Z M 221.609375 203.363281 L 222.460938 204.859375 L 222.460938 204.894531 L 222.476562 204.894531 L 230.71875 219.300781 C 227.273438 220.449219 223.097656 220.574219 217.621094 219.695312 C 216.003906 219.433594 214.136719 219.042969 212.167969 218.636719 C 208.519531 217.875 204.75 217.082031 201.707031 216.929688 C 199.222656 216.800781 196.59375 217.265625 194.300781 218.246094 C 192.65625 218.945312 191.222656 219.890625 190.058594 221.027344 C 192.621094 215.933594 197.480469 215 201.355469 215.199219 C 204.347656 215.355469 207.121094 215.925781 210.0625 216.53125 C 211.617188 216.851562 213.21875 217.183594 214.839844 217.441406 C 215.179688 217.5 215.523438 217.554688 215.871094 217.613281 C 220.246094 218.324219 224.777344 219.066406 228.804688 217.585938 C 228.917969 217.542969 229.011719 217.449219 229.050781 217.332031 C 229.09375 217.21875 229.082031 217.082031 229.023438 216.976562 L 221.304688 203.492188 C 221.410156 203.449219 221.507812 203.40625 221.609375 203.363281 Z M 198.054688 199.320312 C 200.425781 199.484375 202.789062 200.082031 205.082031 200.664062 C 206.195312 200.945312 207.355469 201.242188 208.496094 201.480469 C 212.828125 202.390625 216.160156 202.25 218.933594 201.03125 L 228.050781 216.957031 C 224.339844 218.140625 220.113281 217.449219 216.011719 216.78125 C 215.667969 216.722656 215.320312 216.667969 214.980469 216.609375 C 213.371094 216.355469 211.785156 216.023438 210.238281 215.707031 C 207.402344 215.121094 204.46875 214.515625 201.40625 214.351562 C 198.511719 214.203125 195.984375 214.699219 193.902344 215.820312 C 191.820312 216.941406 190.226562 218.679688 189.148438 220.992188 L 189.238281 203.476562 C 190.488281 202.292969 194.277344 199.066406 198.054688 199.320312 Z M 158.691406 201.03125 C 161.457031 202.25 164.789062 202.390625 169.128906 201.480469 C 170.277344 201.242188 171.429688 200.945312 172.542969 200.664062 C 174.828125 200.082031 177.199219 199.476562 179.570312 199.320312 C 183.347656 199.066406 187.128906 202.285156 188.390625 203.476562 L 188.300781 220.84375 C 187.25 218.394531 185.683594 216.625 183.628906 215.574219 C 181.632812 214.550781 179.402344 214.324219 177.582031 214.324219 C 177.09375 214.324219 176.636719 214.339844 176.21875 214.359375 C 173.15625 214.515625 170.222656 215.121094 167.386719 215.714844 C 165.847656 216.03125 164.253906 216.363281 162.648438 216.617188 C 162.304688 216.675781 161.964844 216.730469 161.621094 216.785156 C 157.527344 217.457031 153.292969 218.148438 149.582031 216.964844 Z M 156.011719 203.363281 C 156.109375 203.40625 156.214844 203.449219 156.3125 203.492188 L 148.59375 216.984375 C 148.53125 217.089844 148.523438 217.21875 148.566406 217.335938 C 148.609375 217.457031 148.699219 217.542969 148.8125 217.589844 C 152.839844 219.082031 157.371094 218.339844 161.746094 217.621094 C 162.09375 217.5625 162.4375 217.507812 162.777344 217.449219 C 164.398438 217.1875 166.003906 216.855469 167.554688 216.539062 C 170.488281 215.933594 173.261719 215.355469 176.261719 215.207031 C 180.320312 214.996094 185.109375 215.558594 187.53125 221.195312 C 186.351562 219.984375 184.890625 218.980469 183.214844 218.253906 C 180.96875 217.273438 178.371094 216.808594 175.902344 216.933594 C 172.855469 217.089844 169.085938 217.878906 165.445312 218.644531 C 163.46875 219.050781 161.605469 219.445312 159.988281 219.699219 C 154.515625 220.574219 150.328125 220.457031 146.894531 219.304688 L 155.136719 204.902344 L 155.140625 204.902344 L 155.140625 204.882812 Z M 186.601562 223.058594 C 185.859375 222.234375 185.035156 221.515625 184.128906 220.921875 C 179.550781 217.921875 174.449219 219.007812 168.535156 220.273438 C 165.199219 220.984375 161.421875 221.789062 157.238281 221.964844 C 152.890625 222.148438 148.425781 221.628906 143.929688 220.40625 L 153.179688 204.691406 L 154.226562 204.796875 L 145.917969 219.3125 C 145.855469 219.417969 145.847656 219.546875 145.890625 219.664062 C 145.933594 219.777344 146.023438 219.871094 146.136719 219.917969 C 149.808594 221.273438 154.253906 221.464844 160.132812 220.519531 C 161.769531 220.257812 163.644531 219.863281 165.628906 219.453125 C 169.242188 218.699219 172.980469 217.914062 175.957031 217.769531 C 179.71875 217.578125 185.035156 218.863281 188.011719 223.058594 Z M 193.953125 220.394531 C 192.71875 221.105469 191.589844 222 190.59375 223.058594 L 189.421875 223.058594 C 192.238281 219.121094 197.53125 217.554688 201.671875 217.769531 C 204.652344 217.921875 208.390625 218.699219 212.003906 219.453125 C 213.988281 219.871094 215.855469 220.257812 217.5 220.519531 C 223.378906 221.464844 227.824219 221.269531 231.492188 219.917969 C 231.605469 219.878906 231.699219 219.785156 231.742188 219.664062 C 231.785156 219.554688 231.769531 219.417969 231.710938 219.3125 L 223.414062 204.804688 L 224.664062 204.691406 L 233.886719 220.355469 C 230.746094 221.078125 227.605469 221.480469 224.527344 221.550781 C 218.730469 221.691406 213.9375 220.703125 209.710938 219.835938 C 203.851562 218.636719 198.808594 217.589844 193.953125 220.394531 Z M 193.953125 220.394531 " fill-opacity="1" fill-rule="nonzero"/><path fill="#285430" d="M 224.566406 223.652344 C 228.242188 223.5625 232.007812 223.03125 235.757812 222.066406 C 236.074219 221.980469 236.335938 221.753906 236.460938 221.449219 C 236.589844 221.148438 236.5625 220.800781 236.398438 220.519531 L 226.125 203.0625 C 225.917969 202.707031 225.523438 202.511719 225.121094 202.546875 L 222.269531 202.808594 L 222.269531 202.84375 L 222.144531 202.617188 C 222.03125 202.425781 221.796875 202.347656 221.59375 202.449219 C 221.359375 202.5625 221.121094 202.667969 220.875 202.757812 L 219.457031 200.28125 C 219.34375 200.089844 219.109375 200.011719 218.90625 200.113281 C 216.246094 201.394531 212.984375 201.574219 208.652344 200.664062 C 207.523438 200.421875 206.378906 200.132812 205.273438 199.851562 C 202.941406 199.257812 200.535156 198.652344 198.09375 198.480469 C 196.5 198.375 194.75 198.8125 192.894531 199.78125 C 191.179688 200.675781 189.753906 201.828125 188.792969 202.722656 C 187.835938 201.828125 186.410156 200.675781 184.695312 199.78125 C 182.847656 198.8125 181.097656 198.375 179.496094 198.480469 C 177.046875 198.644531 174.644531 199.257812 172.316406 199.851562 C 171.210938 200.132812 170.066406 200.421875 168.9375 200.664062 C 164.605469 201.574219 161.34375 201.394531 158.683594 200.113281 C 158.488281 200.011719 158.246094 200.089844 158.132812 200.28125 L 156.738281 202.75 C 156.488281 202.652344 156.25 202.554688 156.015625 202.441406 C 155.820312 202.34375 155.578125 202.417969 155.464844 202.609375 L 155.347656 202.820312 L 155.347656 202.800781 L 152.707031 202.539062 C 152.296875 202.496094 151.902344 202.703125 151.699219 203.054688 L 141.425781 220.511719 C 141.261719 220.789062 141.234375 221.125 141.351562 221.429688 C 141.472656 221.734375 141.71875 221.960938 142.03125 222.050781 C 147.175781 223.601562 152.320312 224.28125 157.324219 224.070312 C 161.683594 223.886719 165.558594 223.058594 168.972656 222.324219 C 174.652344 221.113281 179.132812 220.160156 182.980469 222.679688 C 183.839844 223.242188 184.632812 223.949219 185.308594 224.773438 C 185.507812 225.015625 185.804688 225.15625 186.121094 225.15625 L 191.058594 225.15625 C 191.363281 225.15625 191.644531 225.027344 191.851562 224.804688 C 192.773438 223.757812 193.832031 222.882812 195.011719 222.214844 C 199.183594 219.8125 203.640625 220.730469 209.285156 221.894531 C 213.605469 222.785156 218.523438 223.792969 224.566406 223.652344 Z M 221.609375 203.363281 L 222.460938 204.859375 L 222.460938 204.894531 L 222.476562 204.894531 L 230.71875 219.300781 C 227.273438 220.449219 223.097656 220.574219 217.621094 219.695312 C 216.003906 219.433594 214.136719 219.042969 212.167969 218.636719 C 208.519531 217.875 204.75 217.082031 201.707031 216.929688 C 199.222656 216.800781 196.59375 217.265625 194.300781 218.246094 C 192.65625 218.945312 191.222656 219.890625 190.058594 221.027344 C 192.621094 215.933594 197.480469 215 201.355469 215.199219 C 204.347656 215.355469 207.121094 215.925781 210.0625 216.53125 C 211.617188 216.851562 213.21875 217.183594 214.839844 217.441406 C 215.179688 217.5 215.523438 217.554688 215.871094 217.613281 C 220.246094 218.324219 224.777344 219.066406 228.804688 217.585938 C 228.917969 217.542969 229.011719 217.449219 229.050781 217.332031 C 229.09375 217.21875 229.082031 217.082031 229.023438 216.976562 L 221.304688 203.492188 C 221.410156 203.449219 221.507812 203.40625 221.609375 203.363281 Z M 198.054688 199.320312 C 200.425781 199.484375 202.789062 200.082031 205.082031 200.664062 C 206.195312 200.945312 207.355469 201.242188 208.496094 201.480469 C 212.828125 202.390625 216.160156 202.25 218.933594 201.03125 L 228.050781 216.957031 C 224.339844 218.140625 220.113281 217.449219 216.011719 216.78125 C 215.667969 216.722656 215.320312 216.667969 214.980469 216.609375 C 213.371094 216.355469 211.785156 216.023438 210.238281 215.707031 C 207.402344 215.121094 204.46875 214.515625 201.40625 214.351562 C 198.511719 214.203125 195.984375 214.699219 193.902344 215.820312 C 191.820312 216.941406 190.226562 218.679688 189.148438 220.992188 L 189.238281 203.476562 C 190.488281 202.292969 194.277344 199.066406 198.054688 199.320312 Z M 158.691406 201.03125 C 161.457031 202.25 164.789062 202.390625 169.128906 201.480469 C 170.277344 201.242188 171.429688 200.945312 172.542969 200.664062 C 174.828125 200.082031 177.199219 199.476562 179.570312 199.320312 C 183.347656 199.066406 187.128906 202.285156 188.390625 203.476562 L 188.300781 220.84375 C 187.25 218.394531 185.683594 216.625 183.628906 215.574219 C 181.632812 214.550781 179.402344 214.324219 177.582031 214.324219 C 177.09375 214.324219 176.636719 214.339844 176.21875 214.359375 C 173.15625 214.515625 170.222656 215.121094 167.386719 215.714844 C 165.847656 216.03125 164.253906 216.363281 162.648438 216.617188 C 162.304688 216.675781 161.964844 216.730469 161.621094 216.785156 C 157.527344 217.457031 153.292969 218.148438 149.582031 216.964844 Z M 156.011719 203.363281 C 156.109375 203.40625 156.214844 203.449219 156.3125 203.492188 L 148.59375 216.984375 C 148.53125 217.089844 148.523438 217.21875 148.566406 217.335938 C 148.609375 217.457031 148.699219 217.542969 148.8125 217.589844 C 152.839844 219.082031 157.371094 218.339844 161.746094 217.621094 C 162.09375 217.5625 162.4375 217.507812 162.777344 217.449219 C 164.398438 217.1875 166.003906 216.855469 167.554688 216.539062 C 170.488281 215.933594 173.261719 215.355469 176.261719 215.207031 C 180.320312 214.996094 185.109375 215.558594 187.53125 221.195312 C 186.351562 219.984375 184.890625 218.980469 183.214844 218.253906 C 180.96875 217.273438 178.371094 216.808594 175.902344 216.933594 C 172.855469 217.089844 169.085938 217.878906 165.445312 218.644531 C 163.46875 219.050781 161.605469 219.445312 159.988281 219.699219 C 154.515625 220.574219 150.328125 220.457031 146.894531 219.304688 L 155.136719 204.902344 L 155.140625 204.902344 L 155.140625 204.882812 Z M 186.601562 223.058594 C 185.859375 222.234375 185.035156 221.515625 184.128906 220.921875 C 179.550781 217.921875 174.449219 219.007812 168.535156 220.273438 C 165.199219 220.984375 161.421875 221.789062 157.238281 221.964844 C 152.890625 222.148438 148.425781 221.628906 143.929688 220.40625 L 153.179688 204.691406 L 154.226562 204.796875 L 145.917969 219.3125 C 145.855469 219.417969 145.847656 219.546875 145.890625 219.664062 C 145.933594 219.777344 146.023438 219.871094 146.136719 219.917969 C 149.808594 221.273438 154.253906 221.464844 160.132812 220.519531 C 161.769531 220.257812 163.644531 219.863281 165.628906 219.453125 C 169.242188 218.699219 172.980469 217.914062 175.957031 217.769531 C 179.71875 217.578125 185.035156 218.863281 188.011719 223.058594 Z M 193.953125 220.394531 C 192.71875 221.105469 191.589844 222 190.59375 223.058594 L 189.421875 223.058594 C 192.238281 219.121094 197.53125 217.554688 201.671875 217.769531 C 204.652344 217.921875 208.390625 218.699219 212.003906 219.453125 C 213.988281 219.871094 215.855469 220.257812 217.5 220.519531 C 223.378906 221.464844 227.824219 221.269531 231.492188 219.917969 C 231.605469 219.878906 231.699219 219.785156 231.742188 219.664062 C 231.785156 219.554688 231.769531 219.417969 231.710938 219.3125 L 223.414062 204.804688 L 224.664062 204.691406 L 233.886719 220.355469 C 230.746094 221.078125 227.605469 221.480469 224.527344 221.550781 C 218.730469 221.691406 213.9375 220.703125 209.710938 219.835938 C 203.851562 218.636719 198.808594 217.589844 193.953125 220.394531 Z M 193.953125 220.394531 " fill-opacity="1" fill-rule="nonzero"/></g><g fill="#285430" fill-opacity="1"><g transform="translate(105.7645, 268.197112)"><g><path d="M 0.28125 -1.609375 L 0.84375 -1.9375 L 5.0625 -12.15625 L 8.125 -12.421875 L 11.71875 -2.703125 C 11.832031 -2.390625 11.914062 -2.179688 11.96875 -2.078125 C 12.019531 -1.984375 12.109375 -1.851562 12.234375 -1.6875 L 12.5625 -1.28125 L 12.453125 0 L 7.390625 0 L 7.21875 -1.703125 L 8.5 -2.03125 L 7.921875 -3.859375 L 4.265625 -3.796875 L 3.875 -2.65625 C 3.832031 -2.550781 3.8125 -2.460938 3.8125 -2.390625 C 3.8125 -2.304688 3.828125 -2.242188 3.859375 -2.203125 C 3.890625 -2.160156 3.941406 -2.128906 4.015625 -2.109375 L 5.25 -1.578125 L 5.078125 0 L 0.359375 0 Z M 6.171875 -9.34375 L 4.984375 -5.890625 L 7.3125 -5.78125 Z M 6.171875 -9.34375 "/></g></g></g><g fill="#285430" fill-opacity="1"><g transform="translate(118.572189, 268.197112)"><g><path d="M 0.671875 -1.84375 L 1.984375 -2.203125 L 1.984375 -9.046875 C 1.984375 -9.359375 1.957031 -9.566406 1.90625 -9.671875 C 1.863281 -9.773438 1.738281 -9.867188 1.53125 -9.953125 L 0.59375 -10.46875 L 0.703125 -11.9375 C 1.609375 -12.082031 2.46875 -12.1875 3.28125 -12.25 C 4.101562 -12.3125 4.984375 -12.34375 5.921875 -12.34375 C 7.210938 -12.34375 8.25 -12.203125 9.03125 -11.921875 C 9.820312 -11.648438 10.398438 -11.21875 10.765625 -10.625 C 11.140625 -10.039062 11.328125 -9.265625 11.328125 -8.296875 C 11.328125 -7.035156 10.875 -6.046875 9.96875 -5.328125 C 9.0625 -4.609375 7.820312 -4.25 6.25 -4.25 L 5.25 -4.28125 L 5.25 -2.921875 C 5.25 -2.628906 5.269531 -2.441406 5.3125 -2.359375 C 5.351562 -2.273438 5.460938 -2.191406 5.640625 -2.109375 L 6.734375 -1.453125 L 6.65625 0 L 0.75 0 Z M 6.40625 -6.25 C 7.050781 -6.25 7.523438 -6.3125 7.828125 -6.4375 C 7.960938 -7.03125 8.03125 -7.648438 8.03125 -8.296875 C 8.03125 -9.003906 7.894531 -9.507812 7.625 -9.8125 C 7.351562 -10.113281 6.914062 -10.265625 6.3125 -10.265625 C 6.113281 -10.265625 5.757812 -10.238281 5.25 -10.1875 L 5.25 -6.359375 C 5.570312 -6.285156 5.957031 -6.25 6.40625 -6.25 Z M 6.40625 -6.25 "/></g></g></g><g fill="#285430" fill-opacity="1"><g transform="translate(130.210635, 268.197112)"><g><path d="M 3.109375 2.171875 C 2.429688 1.804688 1.914062 1.492188 1.5625 1.234375 C 1.21875 0.984375 0.816406 0.613281 0.359375 0.125 L 1.8125 -1.640625 L 1.8125 -9.09375 C 1.8125 -9.40625 1.785156 -9.609375 1.734375 -9.703125 C 1.691406 -9.804688 1.570312 -9.898438 1.375 -9.984375 L 0.453125 -10.53125 L 0.515625 -12.125 L 6.296875 -12.125 L 6.390625 -10.296875 L 5.078125 -9.9375 L 5.078125 -4.171875 C 5.078125 -2.898438 4.972656 -1.859375 4.765625 -1.046875 C 4.566406 -0.242188 4.203125 0.566406 3.671875 1.390625 Z M 3.109375 2.171875 "/></g></g></g><g fill="#285430" fill-opacity="1"><g transform="translate(137.010222, 268.197112)"><g/></g></g><g fill="#285430" fill-opacity="1"><g transform="translate(140.715818, 268.197112)"><g><path d="M 0.28125 -1.609375 L 0.84375 -1.9375 L 5.0625 -12.15625 L 8.125 -12.421875 L 11.71875 -2.703125 C 11.832031 -2.390625 11.914062 -2.179688 11.96875 -2.078125 C 12.019531 -1.984375 12.109375 -1.851562 12.234375 -1.6875 L 12.5625 -1.28125 L 12.453125 0 L 7.390625 0 L 7.21875 -1.703125 L 8.5 -2.03125 L 7.921875 -3.859375 L 4.265625 -3.796875 L 3.875 -2.65625 C 3.832031 -2.550781 3.8125 -2.460938 3.8125 -2.390625 C 3.8125 -2.304688 3.828125 -2.242188 3.859375 -2.203125 C 3.890625 -2.160156 3.941406 -2.128906 4.015625 -2.109375 L 5.25 -1.578125 L 5.078125 0 L 0.359375 0 Z M 6.171875 -9.34375 L 4.984375 -5.890625 L 7.3125 -5.78125 Z M 6.171875 -9.34375 "/></g></g></g><g fill="#285430" fill-opacity="1"><g transform="translate(153.523508, 268.197112)"><g><path d="M 4.640625 0.078125 C 3.347656 0.078125 2.050781 0.0234375 0.75 -0.078125 L 0.671875 -1.84375 L 1.984375 -2.203125 L 1.984375 -9.046875 C 1.984375 -9.359375 1.957031 -9.566406 1.90625 -9.671875 C 1.863281 -9.773438 1.738281 -9.867188 1.53125 -9.953125 L 0.59375 -10.46875 L 0.703125 -11.96875 C 2.648438 -12.21875 4.316406 -12.34375 5.703125 -12.34375 C 7.410156 -12.34375 8.660156 -12.085938 9.453125 -11.578125 C 10.242188 -11.078125 10.640625 -10.285156 10.640625 -9.203125 C 10.640625 -8.660156 10.554688 -8.179688 10.390625 -7.765625 C 10.222656 -7.347656 9.960938 -6.972656 9.609375 -6.640625 C 10.804688 -6.097656 11.40625 -5.222656 11.40625 -4.015625 C 11.40625 -2.929688 11.101562 -2.054688 10.5 -1.390625 C 9.90625 -0.734375 9.023438 -0.304688 7.859375 -0.109375 C 7.429688 0.015625 6.359375 0.078125 4.640625 0.078125 Z M 7.296875 -7.21875 C 7.410156 -7.53125 7.46875 -8.050781 7.46875 -8.78125 C 7.46875 -9.289062 7.347656 -9.664062 7.109375 -9.90625 C 6.878906 -10.144531 6.523438 -10.273438 6.046875 -10.296875 C 5.734375 -10.296875 5.421875 -10.285156 5.109375 -10.265625 L 5.109375 -7.25 C 5.316406 -7.257812 5.582031 -7.265625 5.90625 -7.265625 C 6.394531 -7.265625 6.859375 -7.25 7.296875 -7.21875 Z M 6.53125 -2.15625 C 7.21875 -2.15625 7.703125 -2.21875 7.984375 -2.34375 C 8.109375 -2.820312 8.171875 -3.25 8.171875 -3.625 C 8.171875 -4.21875 8.015625 -4.640625 7.703125 -4.890625 C 7.390625 -5.148438 6.863281 -5.28125 6.125 -5.28125 C 5.96875 -5.28125 5.769531 -5.265625 5.53125 -5.234375 L 5.109375 -5.21875 L 5.109375 -2.28125 C 5.523438 -2.195312 6 -2.15625 6.53125 -2.15625 Z M 6.53125 -2.15625 "/></g></g></g><g fill="#285430" fill-opacity="1"><g transform="translate(165.179944, 268.197112)"><g><path d="M 4.34375 0.046875 C 3.039062 0.046875 1.84375 -0.00390625 0.75 -0.109375 L 0.671875 -1.84375 L 1.984375 -2.203125 L 1.984375 -9.046875 C 1.984375 -9.359375 1.957031 -9.566406 1.90625 -9.671875 C 1.863281 -9.773438 1.738281 -9.867188 1.53125 -9.953125 L 0.59375 -10.46875 L 0.703125 -11.96875 C 1.953125 -12.0625 3 -12.132812 3.84375 -12.1875 C 4.695312 -12.25 5.382812 -12.28125 5.90625 -12.28125 C 7.5625 -12.28125 8.890625 -12.085938 9.890625 -11.703125 C 10.890625 -11.316406 11.617188 -10.707031 12.078125 -9.875 C 12.546875 -9.050781 12.78125 -7.957031 12.78125 -6.59375 C 12.78125 -4.863281 12.382812 -3.460938 11.59375 -2.390625 C 10.882812 -1.472656 9.941406 -0.835938 8.765625 -0.484375 C 7.597656 -0.128906 6.125 0.046875 4.34375 0.046875 Z M 6.609375 -2.515625 C 7.617188 -2.515625 8.414062 -2.632812 9 -2.875 C 9.101562 -3.175781 9.203125 -3.644531 9.296875 -4.28125 C 9.390625 -4.914062 9.4375 -5.507812 9.4375 -6.0625 C 9.4375 -7.414062 9.15625 -8.414062 8.59375 -9.0625 C 8.039062 -9.71875 7.191406 -10.046875 6.046875 -10.046875 C 5.890625 -10.046875 5.742188 -10.039062 5.609375 -10.03125 C 5.484375 -10.019531 5.359375 -10.003906 5.234375 -9.984375 L 5.234375 -2.609375 C 5.710938 -2.546875 6.171875 -2.515625 6.609375 -2.515625 Z M 6.609375 -2.515625 "/></g></g></g><g fill="#285430" fill-opacity="1"><g transform="translate(178.401359, 268.197112)"><g><path d="M 6.546875 0.234375 C 4.785156 0.234375 3.492188 -0.226562 2.671875 -1.15625 C 1.847656 -2.09375 1.4375 -3.554688 1.4375 -5.546875 L 1.4375 -9.09375 C 1.4375 -9.40625 1.414062 -9.609375 1.375 -9.703125 C 1.332031 -9.804688 1.21875 -9.898438 1.03125 -9.984375 L 0.453125 -10.328125 L 0.5 -12.125 L 6.125 -12.125 L 6.203125 -10.34375 L 4.71875 -9.9375 L 4.71875 -6.25 C 4.71875 -5 4.894531 -4.015625 5.25 -3.296875 C 5.613281 -2.578125 6.234375 -2.21875 7.109375 -2.21875 C 7.398438 -2.21875 7.679688 -2.257812 7.953125 -2.34375 C 8.222656 -2.425781 8.453125 -2.539062 8.640625 -2.6875 C 8.753906 -2.957031 8.835938 -3.320312 8.890625 -3.78125 C 8.941406 -4.25 8.96875 -4.875 8.96875 -5.65625 L 8.96875 -9.09375 C 8.96875 -9.40625 8.941406 -9.609375 8.890625 -9.703125 C 8.835938 -9.804688 8.710938 -9.898438 8.515625 -9.984375 L 7.625 -10.5 L 7.71875 -12.125 L 13.0625 -12.125 L 13.15625 -10.1875 L 12.21875 -9.9375 L 12.21875 -5.875 C 12.21875 -3.9375 11.722656 -2.429688 10.734375 -1.359375 C 9.742188 -0.296875 8.347656 0.234375 6.546875 0.234375 Z M 6.546875 0.234375 "/></g></g></g><g fill="#285430" fill-opacity="1"><g transform="translate(191.946562, 268.197112)"><g><path d="M 0.484375 -1.890625 L 1.625 -2.203125 L 1.625 -9.09375 C 1.625 -9.40625 1.601562 -9.609375 1.5625 -9.703125 C 1.519531 -9.804688 1.398438 -9.898438 1.203125 -9.984375 L 0.453125 -10.421875 L 0.5 -12.125 L 6.125 -12.125 L 6.203125 -10.296875 L 4.875 -9.9375 L 4.875 -2.15625 L 7.140625 -2.21875 L 8.671875 -3.953125 L 10.0625 -3.890625 C 10.039062 -2.878906 9.957031 -1.582031 9.8125 0 L 0.578125 0 Z M 0.484375 -1.890625 "/></g></g></g><g fill="#285430" fill-opacity="1"><g transform="translate(202.451746, 268.197112)"><g/></g></g><g fill="#285430" fill-opacity="1"><g transform="translate(206.157342, 268.197112)"><g><path d="M 0.484375 -1.890625 L 1.625 -2.203125 L 1.625 -9.09375 C 1.625 -9.40625 1.601562 -9.609375 1.5625 -9.703125 C 1.519531 -9.804688 1.398438 -9.898438 1.203125 -9.984375 L 0.453125 -10.421875 L 0.5 -12.125 L 6.125 -12.125 L 6.203125 -10.296875 L 4.875 -9.9375 L 4.875 -6.546875 L 8.03125 -9.953125 C 8.070312 -10.003906 8.09375 -10.070312 8.09375 -10.15625 C 8.09375 -10.207031 8.078125 -10.257812 8.046875 -10.3125 L 7.53125 -10.9375 L 7.71875 -12.125 L 11.890625 -12.125 L 12.109375 -10.90625 L 7.984375 -6.5 L 12.40625 -0.8125 L 12.40625 0 L 8.96875 0 L 4.875 -5.421875 L 4.875 -2.921875 C 4.875 -2.648438 4.894531 -2.46875 4.9375 -2.375 C 4.976562 -2.28125 5.09375 -2.1875 5.28125 -2.09375 L 6.234375 -1.546875 L 6.15625 0 L 0.578125 0 Z M 0.484375 -1.890625 "/></g></g></g><g fill="#285430" fill-opacity="1"><g transform="translate(218.803131, 268.197112)"><g><path d="M 0.28125 -1.609375 L 0.84375 -1.9375 L 5.0625 -12.15625 L 8.125 -12.421875 L 11.71875 -2.703125 C 11.832031 -2.390625 11.914062 -2.179688 11.96875 -2.078125 C 12.019531 -1.984375 12.109375 -1.851562 12.234375 -1.6875 L 12.5625 -1.28125 L 12.453125 0 L 7.390625 0 L 7.21875 -1.703125 L 8.5 -2.03125 L 7.921875 -3.859375 L 4.265625 -3.796875 L 3.875 -2.65625 C 3.832031 -2.550781 3.8125 -2.460938 3.8125 -2.390625 C 3.8125 -2.304688 3.828125 -2.242188 3.859375 -2.203125 C 3.890625 -2.160156 3.941406 -2.128906 4.015625 -2.109375 L 5.25 -1.578125 L 5.078125 0 L 0.359375 0 Z M 6.171875 -9.34375 L 4.984375 -5.890625 L 7.3125 -5.78125 Z M 6.171875 -9.34375 "/></g></g></g><g fill="#285430" fill-opacity="1"><g transform="translate(231.61082, 268.197112)"><g><path d="M 0.484375 -1.890625 L 1.625 -2.203125 L 1.625 -9.09375 C 1.625 -9.40625 1.601562 -9.609375 1.5625 -9.703125 C 1.519531 -9.804688 1.398438 -9.898438 1.203125 -9.984375 L 0.453125 -10.421875 L 0.5 -12.125 L 6.125 -12.125 L 6.203125 -10.296875 L 4.875 -9.9375 L 4.875 -2.15625 L 7.140625 -2.21875 L 8.671875 -3.953125 L 10.0625 -3.890625 C 10.039062 -2.878906 9.957031 -1.582031 9.8125 0 L 0.578125 0 Z M 0.484375 -1.890625 "/></g></g></g><g fill="#285430" fill-opacity="1"><g transform="translate(242.116004, 268.197112)"><g><path d="M 0.28125 -1.609375 L 0.84375 -1.9375 L 5.0625 -12.15625 L 8.125 -12.421875 L 11.71875 -2.703125 C 11.832031 -2.390625 11.914062 -2.179688 11.96875 -2.078125 C 12.019531 -1.984375 12.109375 -1.851562 12.234375 -1.6875 L 12.5625 -1.28125 L 12.453125 0 L 7.390625 0 L 7.21875 -1.703125 L 8.5 -2.03125 L 7.921875 -3.859375 L 4.265625 -3.796875 L 3.875 -2.65625 C 3.832031 -2.550781 3.8125 -2.460938 3.8125 -2.390625 C 3.8125 -2.304688 3.828125 -2.242188 3.859375 -2.203125 C 3.890625 -2.160156 3.941406 -2.128906 4.015625 -2.109375 L 5.25 -1.578125 L 5.078125 0 L 0.359375 0 Z M 6.171875 -9.34375 L 4.984375 -5.890625 L 7.3125 -5.78125 Z M 6.171875 -9.34375 "/></g></g></g><g fill="#285430" fill-opacity="1"><g transform="translate(254.923693, 268.197112)"><g><path d="M 4.109375 -7.953125 L 3.703125 -2.625 L 3.703125 -2.5625 C 3.703125 -2.332031 3.785156 -2.179688 3.953125 -2.109375 L 5.078125 -1.640625 L 4.890625 0 L 0.40625 0 L 0.234375 -1.609375 L 1.0625 -2.109375 L 2.09375 -9.046875 C 2.101562 -9.140625 2.109375 -9.242188 2.109375 -9.359375 C 2.109375 -9.503906 2.070312 -9.613281 2 -9.6875 C 1.9375 -9.757812 1.816406 -9.847656 1.640625 -9.953125 L 0.8125 -10.421875 L 0.921875 -12.125 L 6.078125 -12.125 L 8.65625 -3.75 L 11.21875 -12.125 L 16.03125 -12.125 L 16.109375 -10.234375 L 14.953125 -9.953125 L 15.9375 -2.890625 C 15.96875 -2.648438 16.015625 -2.460938 16.078125 -2.328125 C 16.148438 -2.203125 16.304688 -1.988281 16.546875 -1.6875 L 16.921875 -1.203125 L 16.8125 0 L 11.453125 0 L 11.28125 -1.65625 L 12.765625 -2.03125 L 12.15625 -8.0625 L 9.84375 0.078125 L 6.765625 0.34375 Z M 4.109375 -7.953125 "/></g></g></g><g fill="#285430" fill-opacity="1"><g transform="translate(77.810947, 288.115234)"><g/></g></g><g fill="#285430" fill-opacity="1"><g transform="translate(82.146884, 288.115234)"><g><path d="M 0.5625 -2.140625 L 2.09375 -2.5625 L 2.09375 -10.609375 C 2.09375 -10.972656 2.066406 -11.210938 2.015625 -11.328125 C 1.960938 -11.453125 1.816406 -11.5625 1.578125 -11.65625 L 0.53125 -12.265625 L 0.59375 -14.15625 L 11.984375 -14.15625 C 12.085938 -12.6875 12.140625 -11.25 12.140625 -9.84375 L 10.578125 -9.75 L 9.09375 -11.59375 L 5.921875 -11.671875 L 5.921875 -8.25 L 10.390625 -8.625 L 10.390625 -5.390625 L 5.921875 -5.875 L 5.921875 -2.5 L 9.40625 -2.5625 L 11.03125 -4.40625 L 12.578125 -4.3125 C 12.523438 -2.832031 12.421875 -1.394531 12.265625 0 L 0.671875 0 Z M 0.5625 -2.140625 "/></g></g></g><g fill="#285430" fill-opacity="1"><g transform="translate(95.229941, 288.115234)"><g><path d="M 5.0625 0.0625 C 3.550781 0.0625 2.15625 0 0.875 -0.125 L 0.78125 -2.140625 L 2.3125 -2.5625 L 2.3125 -10.5625 C 2.3125 -10.925781 2.28125 -11.164062 2.21875 -11.28125 C 2.164062 -11.40625 2.019531 -11.515625 1.78125 -11.609375 L 0.6875 -12.21875 L 0.8125 -13.96875 C 2.269531 -14.082031 3.492188 -14.171875 4.484375 -14.234375 C 5.484375 -14.296875 6.285156 -14.328125 6.890625 -14.328125 C 8.816406 -14.328125 10.363281 -14.101562 11.53125 -13.65625 C 12.707031 -13.207031 13.5625 -12.5 14.09375 -11.53125 C 14.632812 -10.5625 14.90625 -9.28125 14.90625 -7.6875 C 14.90625 -5.664062 14.445312 -4.035156 13.53125 -2.796875 C 12.695312 -1.710938 11.597656 -0.960938 10.234375 -0.546875 C 8.867188 -0.140625 7.144531 0.0625 5.0625 0.0625 Z M 7.703125 -2.9375 C 8.878906 -2.9375 9.8125 -3.078125 10.5 -3.359375 C 10.625 -3.710938 10.738281 -4.257812 10.84375 -5 C 10.945312 -5.738281 11 -6.429688 11 -7.078125 C 11 -8.660156 10.671875 -9.828125 10.015625 -10.578125 C 9.367188 -11.335938 8.382812 -11.71875 7.0625 -11.71875 C 6.875 -11.71875 6.703125 -11.707031 6.546875 -11.6875 C 6.398438 -11.675781 6.253906 -11.664062 6.109375 -11.65625 L 6.109375 -3.046875 C 6.671875 -2.972656 7.203125 -2.9375 7.703125 -2.9375 Z M 7.703125 -2.9375 "/></g></g></g><g fill="#285430" fill-opacity="1"><g transform="translate(110.664998, 288.115234)"><g><path d="M 7.640625 0.265625 C 5.585938 0.265625 4.082031 -0.273438 3.125 -1.359375 C 2.164062 -2.441406 1.6875 -4.144531 1.6875 -6.46875 L 1.6875 -10.609375 C 1.6875 -10.972656 1.660156 -11.210938 1.609375 -11.328125 C 1.554688 -11.453125 1.421875 -11.5625 1.203125 -11.65625 L 0.53125 -12.046875 L 0.59375 -14.15625 L 7.140625 -14.15625 L 7.25 -12.078125 L 5.5 -11.59375 L 5.5 -7.28125 C 5.5 -5.832031 5.707031 -4.6875 6.125 -3.84375 C 6.550781 -3 7.273438 -2.578125 8.296875 -2.578125 C 8.628906 -2.578125 8.953125 -2.625 9.265625 -2.71875 C 9.585938 -2.820312 9.859375 -2.957031 10.078125 -3.125 C 10.222656 -3.445312 10.320312 -3.878906 10.375 -4.421875 C 10.425781 -4.960938 10.453125 -5.6875 10.453125 -6.59375 L 10.453125 -10.609375 C 10.453125 -10.972656 10.425781 -11.210938 10.375 -11.328125 C 10.320312 -11.453125 10.175781 -11.5625 9.9375 -11.65625 L 8.90625 -12.25 L 9.015625 -14.15625 L 15.25 -14.15625 L 15.34375 -11.890625 L 14.265625 -11.59375 L 14.265625 -6.84375 C 14.265625 -4.59375 13.6875 -2.84375 12.53125 -1.59375 C 11.375 -0.351562 9.742188 0.265625 7.640625 0.265625 Z M 7.640625 0.265625 "/></g></g></g><g fill="#285430" fill-opacity="1"><g transform="translate(126.478065, 288.115234)"><g><path d="M 7.15625 0.3125 C 5.03125 0.3125 3.394531 -0.335938 2.25 -1.640625 C 1.101562 -2.941406 0.53125 -4.78125 0.53125 -7.15625 C 0.53125 -8.664062 0.804688 -9.96875 1.359375 -11.0625 C 1.910156 -12.164062 2.707031 -13.007812 3.75 -13.59375 C 4.800781 -14.175781 6.050781 -14.46875 7.5 -14.46875 C 9.132812 -14.46875 10.820312 -14.097656 12.5625 -13.359375 C 12.4375 -12.097656 12.234375 -10.703125 11.953125 -9.171875 L 10.359375 -9.078125 L 8.90625 -11.1875 C 8.289062 -11.375 7.609375 -11.46875 6.859375 -11.46875 C 6.304688 -11.46875 5.773438 -11.414062 5.265625 -11.3125 C 5.046875 -10.882812 4.863281 -10.3125 4.71875 -9.59375 C 4.582031 -8.882812 4.515625 -8.164062 4.515625 -7.4375 C 4.515625 -5.882812 4.796875 -4.734375 5.359375 -3.984375 C 5.929688 -3.234375 6.832031 -2.84375 8.0625 -2.8125 C 8.550781 -2.8125 9.171875 -2.882812 9.921875 -3.03125 C 10.671875 -3.175781 11.398438 -3.367188 12.109375 -3.609375 L 12.765625 -1.296875 C 12.035156 -0.828125 11.15625 -0.441406 10.125 -0.140625 C 9.101562 0.160156 8.113281 0.3125 7.15625 0.3125 Z M 7.15625 0.3125 "/></g></g></g><g fill="#285430" fill-opacity="1"><g transform="translate(139.98112, 288.115234)"><g><path d="M 0.34375 -1.875 L 0.984375 -2.265625 L 5.90625 -14.171875 L 9.46875 -14.484375 L 13.671875 -3.15625 C 13.804688 -2.789062 13.898438 -2.550781 13.953125 -2.4375 C 14.015625 -2.320312 14.125 -2.164062 14.28125 -1.96875 L 14.65625 -1.484375 L 14.53125 0 L 8.625 0 L 8.421875 -2 L 9.90625 -2.375 L 9.234375 -4.5 L 4.984375 -4.4375 L 4.515625 -3.109375 C 4.472656 -2.984375 4.453125 -2.878906 4.453125 -2.796875 C 4.453125 -2.691406 4.46875 -2.613281 4.5 -2.5625 C 4.539062 -2.519531 4.601562 -2.484375 4.6875 -2.453125 L 6.125 -1.84375 L 5.921875 0 L 0.421875 0 Z M 7.203125 -10.90625 L 5.8125 -6.859375 L 8.53125 -6.734375 Z M 7.203125 -10.90625 "/></g></g></g><g fill="#285430" fill-opacity="1"><g transform="translate(154.93318, 288.115234)"><g><path d="M 3.609375 -2.0625 L 5.4375 -2.5625 L 5.4375 -11.65625 L 3.671875 -11.515625 L 2.125 -9.640625 L 0.59375 -9.765625 C 0.59375 -10.929688 0.644531 -12.394531 0.75 -14.15625 L 13.90625 -14.15625 C 14.007812 -12.394531 14.0625 -10.929688 14.0625 -9.765625 L 12.5625 -9.640625 L 10.984375 -11.515625 L 9.265625 -11.65625 L 9.265625 -3.40625 C 9.265625 -3.0625 9.285156 -2.84375 9.328125 -2.75 C 9.367188 -2.65625 9.488281 -2.554688 9.6875 -2.453125 L 10.984375 -1.6875 L 10.90625 0 L 3.71875 0 Z M 3.609375 -2.0625 "/></g></g></g><g fill="#285430" fill-opacity="1"><g transform="translate(169.612241, 288.115234)"><g><path d="M 0.671875 -2.140625 L 2.203125 -2.5625 L 2.203125 -10.609375 C 2.203125 -10.972656 2.171875 -11.210938 2.109375 -11.328125 C 2.054688 -11.453125 1.914062 -11.5625 1.6875 -11.65625 L 0.59375 -12.28125 L 0.6875 -14.15625 L 7.4375 -14.15625 L 7.515625 -12.015625 L 6 -11.59375 L 6 -3.40625 C 6 -3.0625 6.023438 -2.84375 6.078125 -2.75 C 6.128906 -2.65625 6.257812 -2.554688 6.46875 -2.453125 L 7.53125 -1.8125 L 7.46875 0 L 0.78125 0 Z M 0.671875 -2.140625 "/></g></g></g><g fill="#285430" fill-opacity="1"><g transform="translate(177.760274, 288.115234)"><g><path d="M 7.4375 0.296875 C 5.113281 0.296875 3.378906 -0.289062 2.234375 -1.46875 C 1.097656 -2.644531 0.53125 -4.429688 0.53125 -6.828125 C 0.53125 -8.378906 0.816406 -9.722656 1.390625 -10.859375 C 1.960938 -12.003906 2.78125 -12.882812 3.84375 -13.5 C 4.90625 -14.113281 6.171875 -14.421875 7.640625 -14.421875 C 12.316406 -14.421875 14.65625 -12.035156 14.65625 -7.265625 C 14.65625 -5.691406 14.367188 -4.335938 13.796875 -3.203125 C 13.222656 -2.078125 12.394531 -1.210938 11.3125 -0.609375 C 10.226562 -0.00390625 8.9375 0.296875 7.4375 0.296875 Z M 7.875 -2.609375 C 8.675781 -2.609375 9.4375 -2.8125 10.15625 -3.21875 C 10.3125 -3.644531 10.429688 -4.179688 10.515625 -4.828125 C 10.597656 -5.484375 10.640625 -6.128906 10.640625 -6.765625 C 10.640625 -8.316406 10.347656 -9.488281 9.765625 -10.28125 C 9.191406 -11.082031 8.34375 -11.484375 7.21875 -11.484375 C 6.425781 -11.484375 5.65625 -11.335938 4.90625 -11.046875 C 4.757812 -10.773438 4.644531 -10.332031 4.5625 -9.71875 C 4.476562 -9.113281 4.4375 -8.421875 4.4375 -7.640625 C 4.4375 -6.015625 4.726562 -4.769531 5.3125 -3.90625 C 5.894531 -3.039062 6.75 -2.609375 7.875 -2.609375 Z M 7.875 -2.609375 "/></g></g></g><g fill="#285430" fill-opacity="1"><g transform="translate(192.922333, 288.115234)"><g><path d="M 4.3125 -8.953125 L 4.65625 -3.4375 C 4.675781 -3.125 4.710938 -2.914062 4.765625 -2.8125 C 4.816406 -2.71875 4.941406 -2.613281 5.140625 -2.5 L 6.234375 -1.765625 L 6.15625 0 L 0.6875 0 L 0.59375 -2.28125 L 1.71875 -2.5625 L 1.8125 -10.84375 C 1.8125 -11.101562 1.789062 -11.28125 1.75 -11.375 C 1.707031 -11.476562 1.609375 -11.59375 1.453125 -11.71875 L 0.671875 -12.3125 L 0.8125 -14.15625 L 5.171875 -14.15625 L 11.515625 -6.03125 L 11.21875 -10.703125 C 11.195312 -11.046875 11.160156 -11.265625 11.109375 -11.359375 C 11.054688 -11.460938 10.929688 -11.566406 10.734375 -11.671875 L 9.640625 -12.390625 L 9.703125 -14.15625 L 15.125 -14.15625 L 15.203125 -12.015625 L 14.140625 -11.546875 L 14.046875 -0.1875 L 11.640625 0.609375 Z M 4.3125 -8.953125 "/></g></g></g><g fill="#285430" fill-opacity="1"><g transform="translate(208.630401, 288.115234)"><g/></g></g><g fill="#285430" fill-opacity="1"><g transform="translate(212.956416, 288.115234)"><g><path d="M 7.15625 0.3125 C 5.03125 0.3125 3.394531 -0.335938 2.25 -1.640625 C 1.101562 -2.941406 0.53125 -4.78125 0.53125 -7.15625 C 0.53125 -8.664062 0.804688 -9.96875 1.359375 -11.0625 C 1.910156 -12.164062 2.707031 -13.007812 3.75 -13.59375 C 4.800781 -14.175781 6.050781 -14.46875 7.5 -14.46875 C 9.132812 -14.46875 10.820312 -14.097656 12.5625 -13.359375 C 12.4375 -12.097656 12.234375 -10.703125 11.953125 -9.171875 L 10.359375 -9.078125 L 8.90625 -11.1875 C 8.289062 -11.375 7.609375 -11.46875 6.859375 -11.46875 C 6.304688 -11.46875 5.773438 -11.414062 5.265625 -11.3125 C 5.046875 -10.882812 4.863281 -10.3125 4.71875 -9.59375 C 4.582031 -8.882812 4.515625 -8.164062 4.515625 -7.4375 C 4.515625 -5.882812 4.796875 -4.734375 5.359375 -3.984375 C 5.929688 -3.234375 6.832031 -2.84375 8.0625 -2.8125 C 8.550781 -2.8125 9.171875 -2.882812 9.921875 -3.03125 C 10.671875 -3.175781 11.398438 -3.367188 12.109375 -3.609375 L 12.765625 -1.296875 C 12.035156 -0.828125 11.15625 -0.441406 10.125 -0.140625 C 9.101562 0.160156 8.113281 0.3125 7.15625 0.3125 Z M 7.15625 0.3125 "/></g></g></g><g fill="#285430" fill-opacity="1"><g transform="translate(226.45947, 288.115234)"><g><path d="M 0.5625 -2.140625 L 2.09375 -2.5625 L 2.09375 -10.609375 C 2.09375 -10.972656 2.066406 -11.210938 2.015625 -11.328125 C 1.960938 -11.453125 1.816406 -11.5625 1.578125 -11.65625 L 0.53125 -12.265625 L 0.59375 -14.15625 L 11.984375 -14.15625 C 12.085938 -12.6875 12.140625 -11.25 12.140625 -9.84375 L 10.578125 -9.75 L 9.09375 -11.59375 L 5.921875 -11.671875 L 5.921875 -8.25 L 10.390625 -8.625 L 10.390625 -5.390625 L 5.921875 -5.875 L 5.921875 -2.5 L 9.40625 -2.5625 L 11.03125 -4.40625 L 12.578125 -4.3125 C 12.523438 -2.832031 12.421875 -1.394531 12.265625 0 L 0.671875 0 Z M 0.5625 -2.140625 "/></g></g></g><g fill="#285430" fill-opacity="1"><g transform="translate(239.542527, 288.115234)"><g><path d="M 4.3125 -8.953125 L 4.65625 -3.4375 C 4.675781 -3.125 4.710938 -2.914062 4.765625 -2.8125 C 4.816406 -2.71875 4.941406 -2.613281 5.140625 -2.5 L 6.234375 -1.765625 L 6.15625 0 L 0.6875 0 L 0.59375 -2.28125 L 1.71875 -2.5625 L 1.8125 -10.84375 C 1.8125 -11.101562 1.789062 -11.28125 1.75 -11.375 C 1.707031 -11.476562 1.609375 -11.59375 1.453125 -11.71875 L 0.671875 -12.3125 L 0.8125 -14.15625 L 5.171875 -14.15625 L 11.515625 -6.03125 L 11.21875 -10.703125 C 11.195312 -11.046875 11.160156 -11.265625 11.109375 -11.359375 C 11.054688 -11.460938 10.929688 -11.566406 10.734375 -11.671875 L 9.640625 -12.390625 L 9.703125 -14.15625 L 15.125 -14.15625 L 15.203125 -12.015625 L 14.140625 -11.546875 L 14.046875 -0.1875 L 11.640625 0.609375 Z M 4.3125 -8.953125 "/></g></g></g><g fill="#285430" fill-opacity="1"><g transform="translate(255.250595, 288.115234)"><g><path d="M 3.609375 -2.0625 L 5.4375 -2.5625 L 5.4375 -11.65625 L 3.671875 -11.515625 L 2.125 -9.640625 L 0.59375 -9.765625 C 0.59375 -10.929688 0.644531 -12.394531 0.75 -14.15625 L 13.90625 -14.15625 C 14.007812 -12.394531 14.0625 -10.929688 14.0625 -9.765625 L 12.5625 -9.640625 L 10.984375 -11.515625 L 9.265625 -11.65625 L 9.265625 -3.40625 C 9.265625 -3.0625 9.285156 -2.84375 9.328125 -2.75 C 9.367188 -2.65625 9.488281 -2.554688 9.6875 -2.453125 L 10.984375 -1.6875 L 10.90625 0 L 3.71875 0 Z M 3.609375 -2.0625 "/></g></g></g><g fill="#285430" fill-opacity="1"><g transform="translate(269.929657, 288.115234)"><g><path d="M 0.78125 -2.140625 L 2.3125 -2.5625 L 2.3125 -10.5625 C 2.3125 -10.925781 2.28125 -11.164062 2.21875 -11.28125 C 2.164062 -11.40625 2.019531 -11.515625 1.78125 -11.609375 L 0.6875 -12.21875 L 0.8125 -13.9375 C 2.914062 -14.25 4.941406 -14.40625 6.890625 -14.40625 C 8.398438 -14.40625 9.613281 -14.253906 10.53125 -13.953125 C 11.457031 -13.648438 12.132812 -13.179688 12.5625 -12.546875 C 12.988281 -11.910156 13.203125 -11.066406 13.203125 -10.015625 C 13.203125 -9.148438 12.976562 -8.390625 12.53125 -7.734375 C 12.082031 -7.085938 11.445312 -6.585938 10.625 -6.234375 L 13.984375 -0.8125 L 13.96875 0 L 10.140625 0 L 7.03125 -5.609375 L 6.109375 -5.625 L 6.109375 -3.28125 C 6.109375 -2.9375 6.132812 -2.71875 6.1875 -2.625 C 6.238281 -2.539062 6.359375 -2.441406 6.546875 -2.328125 L 7.453125 -1.8125 L 7.375 0 L 0.875 0 Z M 7.453125 -7.984375 C 8.191406 -7.984375 8.738281 -8.050781 9.09375 -8.1875 C 9.226562 -8.695312 9.296875 -9.300781 9.296875 -10 C 9.296875 -10.695312 9.144531 -11.191406 8.84375 -11.484375 C 8.550781 -11.773438 8.050781 -11.921875 7.34375 -11.921875 C 6.957031 -11.921875 6.5625 -11.898438 6.15625 -11.859375 L 6.15625 -8.109375 C 6.519531 -8.023438 6.953125 -7.984375 7.453125 -7.984375 Z M 7.453125 -7.984375 "/></g></g></g><g fill="#285430" fill-opacity="1"><g transform="translate(284.083731, 288.115234)"><g><path d="M 0.5625 -2.140625 L 2.09375 -2.5625 L 2.09375 -10.609375 C 2.09375 -10.972656 2.066406 -11.210938 2.015625 -11.328125 C 1.960938 -11.453125 1.816406 -11.5625 1.578125 -11.65625 L 0.53125 -12.265625 L 0.59375 -14.15625 L 11.984375 -14.15625 C 12.085938 -12.6875 12.140625 -11.25 12.140625 -9.84375 L 10.578125 -9.75 L 9.09375 -11.59375 L 5.921875 -11.671875 L 5.921875 -8.25 L 10.390625 -8.625 L 10.390625 -5.390625 L 5.921875 -5.875 L 5.921875 -2.5 L 9.40625 -2.5625 L 11.03125 -4.40625 L 12.578125 -4.3125 C 12.523438 -2.832031 12.421875 -1.394531 12.265625 0 L 0.671875 0 Z M 0.5625 -2.140625 "/></g></g></g></svg>